<svg width="92" height="92" viewBox="0 0 92 92" fill="none" xmlns="http://www.w3.org/2000/svg">
<rect x="1" y="1" width="90" height="90" rx="4" fill="#A6CE39"/>
<rect x="1" y="1" width="90" height="90" rx="4" stroke="#E9ECF5"/>
<path fill-rule="evenodd" clip-rule="evenodd" d="M47.5702 19H42.4268V33.0482C44.2692 33.0482 45.9581 33.5856 47.5702 34.6603V19Z" fill="#231F20"/>
<path fill-rule="evenodd" clip-rule="evenodd" d="M43.7319 58.381C42.5804 60.3769 40.8148 61.2981 38.5118 61.2981C36.8997 61.2981 35.5179 60.8375 34.3664 59.9163C33.2149 58.9184 32.2937 57.6134 31.7564 56.078C31.219 54.5427 30.8352 52.9306 30.8352 51.165C30.8352 49.3994 31.219 47.7105 31.7564 46.1752C32.2937 44.6399 33.2149 43.3349 34.3664 42.4137C35.5179 41.4157 36.8997 40.9551 38.5118 40.9551C40.0471 40.9551 41.4289 41.4157 42.5036 42.3369C43.5016 43.2581 44.2692 44.5631 44.8066 46.0984C45.2672 47.6338 45.4975 49.2458 45.4975 51.165C45.5743 54.0821 44.9601 56.4619 43.7319 58.381ZM52.867 43.0278C51.8691 40.4945 50.3338 38.3451 48.3378 36.8097C46.3419 35.2744 44.0389 34.43 41.1986 34.43C39.2027 34.43 37.2835 34.8138 35.5947 35.5815C33.9058 36.4259 32.4473 37.5774 31.4493 39.1127V19H23.005V67.6697C23.005 67.6697 30.7584 68.5909 31.0655 63.6011V62.987V62.8334L31.1422 63.2173C31.2958 63.6011 31.6028 64.0617 32.0634 64.6758C32.6775 65.4435 33.6755 66.1344 35.2108 66.9021C36.8229 67.6697 38.8188 67.9 41.3521 67.9C44.1157 67.9 46.4955 67.1324 48.4914 65.597C50.4873 63.9849 52.0226 61.989 53.0206 59.379C54.0185 56.7689 54.5559 54.0053 54.5559 51.2418C54.4024 48.4014 53.865 45.7146 52.867 43.0278Z" fill="#ED1C24"/>
<path fill-rule="evenodd" clip-rule="evenodd" d="M67.6829 43.1046C64.9193 36.0421 57.2427 32.4341 50.4873 35.735C50.1802 35.8885 49.8732 36.0421 49.5661 36.1956C50.5641 37.1168 51.4852 38.1915 52.3297 39.343C53.1741 39.036 54.0953 38.8824 55.0933 38.8824C61.6184 38.8824 63.5375 45.8681 63.5375 51.165C63.5375 56.4619 61.4648 63.3708 55.0933 63.3708C54.0185 63.3708 53.0206 63.2173 52.0994 62.8334C51.1782 64.1385 50.1035 65.29 48.952 66.2112C49.259 66.3647 49.5661 66.5182 49.9499 66.7485C51.562 67.5162 53.5579 67.7465 56.0912 67.7465C58.8548 67.7465 61.2345 66.9788 63.2305 65.4435C65.2264 63.8314 66.7617 61.8355 67.7597 59.2254C68.7576 56.6154 69.295 53.8518 69.295 51.0882C69.2182 48.4014 68.6809 45.7146 67.6829 43.1046Z" fill="#231F20"/>
</svg>
