<svg width="92" height="92" viewBox="0 0 92 92" fill="none" xmlns="http://www.w3.org/2000/svg">
<rect x="1" y="1" width="90" height="90" rx="4" fill="white"/>
<rect x="1" y="1" width="90" height="90" rx="4" stroke="#E9ECF5"/>
<g clip-path="url(#clip0_1956_6955)">
<path d="M77.5 30H14.5C12.567 30 11 31.5919 11 33.5556V58.4444C11 60.4081 12.567 62 14.5 62H77.5C79.433 62 81 60.4081 81 58.4444V33.5556C81 31.5919 79.433 30 77.5 30Z" fill="white"/>
<path fill-rule="evenodd" clip-rule="evenodd" d="M77.2711 30H14.5732C12.6009 30 11 31.5258 11 33.4084V58.5619C11 60.4444 12.6009 62 14.5732 62H77.2711C79.2433 62 80.8578 60.4795 80.8578 58.6381V33.4854C80.8578 31.5274 79.2769 30 77.2711 30ZM59.2829 60.546H14.5731C13.4409 60.546 12.5234 59.6429 12.5234 58.5621V33.4086C12.5234 32.3279 13.4401 31.4545 14.5731 31.4545H59.2829V60.546ZM79.3328 57.229L75.9185 60.5459H71.1979L79.3328 52.7178V57.229ZM79.3344 50.2111H77.2776L66.499 60.546H61.7863L72.565 50.2111H67.862L60.8082 56.9844V52.5441L63.2148 50.2103H60.8082V31.4536H77.2728C78.4242 31.4536 79.3352 32.3423 79.3352 33.484L79.3344 50.2111Z" fill="#F8931F"/>
<path fill-rule="evenodd" clip-rule="evenodd" d="M20.406 57.5699C23.6071 57.5699 24.8743 55.9297 24.8743 53.1958V51.1281H21.9063V53.8071C21.9063 54.5792 21.5342 54.9968 20.4219 54.9968C19.344 54.9968 18.9384 54.5784 18.9384 53.8071V38.1775C18.9384 37.4054 19.344 36.9878 20.4219 36.9878C21.5342 36.9878 21.9063 37.4062 21.9063 38.1775V40.8702H24.8743V38.7888C24.8743 36.0549 23.6071 34.4147 20.406 34.4147C17.2392 34.4147 15.9712 36.0549 15.9712 38.7888V53.1966C15.972 55.9305 17.2392 57.5699 20.406 57.5699Z" fill="#0059A3"/>
<path fill-rule="evenodd" clip-rule="evenodd" d="M29.1603 52.8133H32.26L32.8333 57.2537H35.7309L32.4293 34.7464H28.9926L25.6909 57.2537H28.5886L29.1603 52.8133ZM30.7095 39.9182L31.9567 50.2096H29.463L30.7095 39.9182Z" fill="#0059A3"/>
<path fill-rule="evenodd" clip-rule="evenodd" d="M39.8736 47.4537H40.902C42.0143 47.4537 42.7601 47.9217 42.7601 49.2403V53.2606C42.7601 55.2224 42.8224 56.2582 43.6647 57.2536H46.3604C45.922 56.4114 45.7281 55.48 45.7281 54.5151V49.4338C45.7281 47.9545 45.4733 46.9896 43.7206 46.5071C45.1356 46.2175 45.4869 45.2206 45.4869 43.966V37.5662C45.4869 35.862 44.2708 34.7455 42.4511 34.7455H36.9049V57.2528H39.8728L39.8736 47.4537ZM39.8729 37.3487H41.8452C42.3506 37.3487 42.5199 37.4699 42.5199 37.9523V44.2882C42.5199 44.7707 42.3506 44.9276 41.8452 44.9276H39.8729V37.3487Z" fill="#0059A3"/>
<path fill-rule="evenodd" clip-rule="evenodd" d="M51.5028 57.5699C54.3334 57.5699 55.7539 55.8977 55.7539 53.6463V50.4948C55.7539 49.1762 55.3842 48.1793 54.5418 47.2144L51.0669 43.066C50.4944 42.3908 50.2197 41.8115 50.2197 40.8466V38.1775C50.2197 37.4054 50.6341 36.9878 51.5428 36.9878C52.4522 36.9878 52.8667 37.4062 52.8667 38.1775V41.1766H55.8338V38.3383C55.8338 36.0869 54.3901 34.4147 51.5595 34.4147C48.7297 34.4147 47.2517 36.0869 47.2517 38.3383V41.4899C47.2517 42.8084 47.6286 43.8053 48.4375 44.7702L51.9827 48.9186C52.556 49.5939 52.8667 50.1732 52.8667 51.1381V53.8071C52.8667 54.5792 52.4123 54.9968 51.5028 54.9968C50.5933 54.9968 50.1398 54.5784 50.1398 53.8071V50.8217H47.2526V53.6455C47.2517 55.8977 48.6723 57.5699 51.5028 57.5699Z" fill="#0059A3"/>
<path fill-rule="evenodd" clip-rule="evenodd" d="M69.0054 41.0404C69.6865 39.7059 70.0626 38.7478 70.0626 37.6694C70.0626 35.5818 69.1132 34.7411 67.6432 34.7411C66.4607 34.7411 65.2238 35.5117 65.2238 37.7319H66.7833C66.7833 36.6603 67.0515 36.0925 67.6608 36.0925C68.2884 36.0925 68.5032 36.6412 68.5032 37.7357C68.5032 38.4879 68.4058 39.1564 67.6528 40.5938L65.1369 45.5722V46.9181H70.1098V45.5402H66.7298L69.0054 41.0404Z" fill="#0059A3"/>
<path fill-rule="evenodd" clip-rule="evenodd" d="M74.2002 34.8996H72.7334L69.7087 42.6988V44.0096H72.676V46.9188H74.2002V44.0096H75.0019V42.6317H74.2002V34.8996ZM72.6767 42.6322H71.138L72.6767 38.6278V42.6322Z" fill="#0059A3"/>
</g>
<defs>
<clipPath id="clip0_1956_6955">
<rect width="70" height="32" fill="white" transform="translate(11 30)"/>
</clipPath>
</defs>
</svg>
