<svg width="92" height="92" viewBox="0 0 92 92" fill="none" xmlns="http://www.w3.org/2000/svg">
<rect x="1" y="1" width="90" height="90" rx="4" fill="white"/>
<rect x="1" y="1" width="90" height="90" rx="4" stroke="#E9ECF5"/>
<path fill-rule="evenodd" clip-rule="evenodd" d="M45.0105 21.0192C38.5936 21.2803 32.5215 23.991 28.0829 28.5762C25.4416 31.3046 23.4468 34.5787 22.2645 38.1258C20.1237 44.5484 20.7236 51.7503 23.8936 57.6847C27.4762 64.3916 33.7937 69.0859 41.198 70.5431C43.7672 71.0488 46.5947 71.1375 49.2416 70.7953C54.207 70.1536 58.8419 68.0317 62.6455 64.6591C63.3995 63.9905 64.4966 62.8574 65.1866 62.0342C68.3269 58.2888 70.3169 53.6469 70.8519 48.8195C70.9705 47.7494 71 47.1883 71 46.0108C71 45.0636 70.9492 43.8445 70.908 43.8033C70.9 43.7953 63.8687 43.7923 48.6577 43.7939L46.4828 43.7942V45.9488C46.4828 47.9063 46.4778 48.1092 46.4269 48.1653C46.3727 48.2253 46.6866 48.2272 56.4142 48.2272H66.4575L66.4358 48.388C66.0864 50.9711 65.4761 53.0105 64.4178 55.1308C63.3466 57.2769 62.0777 59.0142 60.3394 60.7144C56.39 64.5772 51.0186 66.6995 45.552 66.5572C39.1853 66.3914 33.4104 63.423 29.5662 58.34C25.2415 52.622 24.2375 45.0281 26.9216 38.3361C27.1691 37.7189 27.7772 36.4614 28.1114 35.8755C30.6055 31.5028 34.6361 28.1575 39.3427 26.5535C41.1117 25.9506 42.7784 25.6166 44.6858 25.4829C45.4125 25.4319 47.3406 25.4625 48.023 25.5357C51.3091 25.8886 54.2131 26.8905 56.9744 28.6239C57.3975 28.8895 58.2823 29.5054 58.5159 29.6969L58.6175 29.7802L58.1609 30.239C57.91 30.4914 57.693 30.6978 57.6789 30.6978C57.6647 30.6978 57.5275 30.6044 57.3737 30.4903C55.9066 29.4004 54.0163 28.4127 52.235 27.8054C50.0391 27.0567 47.9192 26.7309 45.5859 26.7837C44.5916 26.8062 43.9288 26.8617 43.0642 26.9949C36.8769 27.9481 31.5228 31.8827 28.7463 37.5167C27.5343 39.9761 26.8719 42.6008 26.7887 45.2745C26.6838 48.6417 27.3403 51.69 28.7949 54.5894C31.4987 59.9783 36.5707 63.8114 42.4498 64.9084C43.6491 65.1322 44.6961 65.2245 46.0259 65.2241C49.0294 65.2227 51.7453 64.5967 54.4203 63.2891C59.5564 60.7783 63.2798 56.188 64.6761 50.6456C64.7408 50.3883 64.7889 50.1728 64.7828 50.1667C64.7589 50.1428 53.6752 50.1575 53.667 50.1814C53.6445 50.2477 53.1797 50.9627 53.0013 51.2056C52.1648 52.3444 50.8503 53.4013 49.5703 53.9642C47.1278 55.0386 44.4025 54.97 42.0487 53.775C40.7317 53.1063 39.5531 52.052 38.7364 50.8119C38.5755 50.5675 38.418 50.3202 38.3862 50.262C38.3436 50.1838 38.3047 50.1563 38.2372 50.1563C38.1505 50.1563 38.1488 50.153 38.202 50.0941C38.2548 50.0355 38.2484 50.0111 38.0927 49.6795C37.7478 48.945 37.4855 48.0716 37.3569 47.2289C37.2795 46.7219 37.2692 45.403 37.3388 44.9109C37.5358 43.5164 37.9966 42.2933 38.7475 41.1716C40.1691 39.048 42.3611 37.6897 44.9258 37.3436C45.4936 37.2669 46.5253 37.2669 47.0903 37.3436C48.7736 37.5719 50.3327 38.2538 51.5903 39.3116C52.17 39.7991 52.917 40.625 53.2386 41.1338C53.2928 41.2195 53.3448 41.2898 53.3542 41.2898C53.3636 41.2898 54.0859 40.5753 54.9594 39.7019L56.5477 38.1138L56.4492 37.9845C55.7105 37.013 54.558 35.9135 53.5222 35.1917C52.54 34.5074 51.2606 33.8673 50.1294 33.4942C48.0595 32.8115 45.7628 32.6564 43.6058 33.0535C40.243 33.6727 37.243 35.5966 35.2431 38.4166C34.2004 39.8869 33.4595 41.6019 33.0954 43.3881C32.8143 44.7672 32.7639 46.4727 32.9632 47.855C33.4649 51.3344 35.3138 54.4458 38.1334 56.5555C40.0003 57.9524 42.1327 58.7964 44.5536 59.0967C45.1136 59.1663 46.9888 59.1556 47.583 59.0797C50.3813 58.7217 52.8612 57.5722 54.9464 55.6663C55.1614 55.4697 55.4812 55.1484 55.6572 54.9522L55.9773 54.5953L57.0033 54.5924C57.8155 54.59 58.0239 54.5981 58.0041 54.6316C57.8288 54.9275 57.13 55.7558 56.5878 56.3106C54.1725 58.7825 51.17 60.2655 47.7014 60.6999C47.12 60.7727 45.5083 60.8016 44.87 60.7506C43.9669 60.6786 43.2656 60.5622 42.3731 60.3361C39.1042 59.5081 36.2495 57.6058 34.1682 54.8684C33.9627 54.5981 33.9515 54.5894 33.8162 54.5894H33.6764L33.75 54.5109C33.7905 54.468 33.8236 54.4227 33.8236 54.4106C33.8236 54.3984 33.7336 54.2536 33.6235 54.0889C32.6124 52.5752 31.8467 50.6913 31.4748 48.8025C31.2773 47.7992 31.2362 47.3228 31.2353 46.0277C31.2345 44.7406 31.2645 44.3536 31.4399 43.3881C31.9222 40.7319 33.1121 38.2773 34.9058 36.2387C38.557 32.0889 44.1895 30.3213 49.5461 31.6445C52.6113 32.4016 55.3464 34.121 57.3806 36.5692C57.5353 36.7553 57.6734 36.9205 57.6875 36.9361C57.7106 36.9617 64.9308 29.8225 64.9586 29.7467C64.988 29.6666 63.6059 28.2182 62.8237 27.5092C59.6852 24.6644 55.8709 22.6436 51.8252 21.6822C49.6345 21.1616 47.2386 20.9285 45.0105 21.0192Z" fill="#466AF9"/>
</svg>
