<svg width="92" height="92" viewBox="0 0 92 92" fill="none" xmlns="http://www.w3.org/2000/svg">
<rect x="1" y="1" width="90" height="90" rx="4" fill="white"/>
<rect x="1" y="1" width="90" height="90" rx="4" stroke="#E9ECF5"/>
<g clip-path="url(#clip0_4001_3906)">
<path d="M68.5557 40C68.5516 40.1092 68.5443 40.2181 68.5436 40.3274C68.5398 41.1776 68.5352 42.0278 68.5366 42.878C68.5366 42.9757 68.513 43.0035 68.4099 43.0028C67.2563 42.9964 66.103 42.9944 64.9494 42.9923C64.5981 42.9916 64.2471 42.9981 63.8958 42.994C63.8079 42.993 63.7902 43.0198 63.7909 43.0999C63.7944 43.7048 63.7954 44.31 63.7899 44.9149C63.7888 45.0144 63.8197 45.03 63.9124 45.0296C64.9445 45.0262 65.9767 45.03 67.0091 45.0242C67.1327 45.0235 67.1532 45.0602 67.1528 45.1701C67.1483 46.0756 67.1476 46.9811 67.1539 47.8862C67.1546 48.0077 67.1157 48.0264 67.0039 48.026C65.9805 48.0219 64.957 48.0253 63.9332 48.0213C63.8267 48.0209 63.7874 48.0355 63.7892 48.1543C63.7972 48.7168 63.7951 49.2796 63.7906 49.8424C63.7899 49.9388 63.8117 49.9683 63.9162 49.9683C65.4167 49.969 66.9168 49.9761 68.4172 49.9758C68.5387 49.9758 68.5703 50.0084 68.5464 50.1173C68.5373 50.158 68.5436 50.2014 68.5432 50.2438C68.5401 51.1194 68.5363 51.9951 68.5359 52.8707C68.5359 52.9498 68.5207 52.9776 68.4314 52.9773C66.4019 52.9705 64.3724 52.9668 62.3432 52.964C62.2811 52.964 62.2391 52.9433 62.1964 52.9016C61.7253 52.4399 61.2531 51.9791 60.7789 51.5201C60.7348 51.4774 60.7202 51.4346 60.7202 51.3756C60.7216 48.1135 60.7216 44.8515 60.7196 41.5895C60.7196 41.5219 60.7477 41.4816 60.7921 41.4381C61.2813 40.9594 61.769 40.4797 62.2571 40C64.3568 40 66.4564 40 68.5557 40Z" fill="#231F20"/>
<path d="M23.1058 40.0153C23.1655 40.1567 23.1263 40.3043 23.1308 40.4488C23.1367 40.6388 23.1259 40.8292 23.1249 41.0192C23.1211 41.641 23.1162 42.2626 23.1179 42.8844C23.1179 42.9784 23.0957 43.0032 22.9975 43.0028C21.8484 42.9964 20.6989 42.9944 19.5498 42.9923C19.1943 42.9916 18.8385 42.9984 18.483 42.9937C18.3885 42.9923 18.3712 43.0208 18.3719 43.1067C18.3757 43.7116 18.3764 44.3168 18.3715 44.9217C18.3708 45.015 18.401 45.0296 18.4878 45.0293C19.5158 45.0262 20.5437 45.0293 21.5713 45.0245C21.6939 45.0239 21.7366 45.0418 21.7352 45.1769C21.7275 46.078 21.7293 46.9794 21.7335 47.8805C21.7341 47.9897 21.7144 48.0274 21.5901 48.0267C20.5621 48.0209 19.5342 48.025 18.5066 48.0209C18.4028 48.0206 18.3691 48.0386 18.3705 48.1485C18.3771 48.7154 18.376 49.2823 18.3712 49.8492C18.3705 49.9429 18.3924 49.9676 18.4913 49.9676C19.9917 49.9683 21.4922 49.9751 22.9926 49.9758C23.1034 49.9758 23.137 49.9958 23.1356 50.1115C23.1242 51.0292 23.1197 51.9469 23.1172 52.865C23.1172 52.9525 23.0968 52.9769 23.0044 52.9766C20.9794 52.9698 18.9541 52.9661 16.9291 52.9637C16.8617 52.9637 16.8169 52.9406 16.7714 52.8958C16.3066 52.4399 15.8407 51.9849 15.3727 51.532C15.3217 51.4828 15.3057 51.4326 15.3057 51.3651C15.3071 48.1115 15.3071 44.8576 15.3054 41.6041C15.3054 41.5298 15.3293 41.4795 15.3821 41.428C15.8692 40.9537 16.3535 40.4767 16.8384 40C18.7992 40 20.76 40 22.7208 40C22.8475 40.0424 22.9773 40.0146 23.1058 40.0153Z" fill="#231F20"/>
<path d="M87.9944 42.9872C87.9958 44.0322 87.9965 45.0775 87.9997 46.1224C87.9997 46.1814 87.9667 46.215 87.934 46.2534C87.0786 47.2644 86.2246 48.2764 85.3654 49.2844C85.2709 49.395 85.231 49.5032 85.2317 49.6474C85.2376 50.7052 85.2324 51.763 85.238 52.8209C85.2387 52.9383 85.2022 52.9569 85.0932 52.9566C84.1607 52.9525 83.2282 52.9522 82.2954 52.9566C82.1888 52.9569 82.1597 52.9342 82.1604 52.8266C82.1649 51.7393 82.1624 50.6516 82.1649 49.5643C82.1649 49.4832 82.143 49.4214 82.0895 49.3587C81.2157 48.3297 80.3447 47.2986 79.4705 46.27C79.4115 46.2004 79.3848 46.1333 79.3851 46.0423C79.3876 44.079 79.3872 42.1157 79.3869 40.152C79.3869 40.1014 79.3841 40.0506 79.3827 40C80.4065 40 81.4303 40 82.4541 40C82.4541 41.5135 82.4662 43.0269 82.4454 44.5401C82.4402 44.9214 82.52 45.2223 82.7957 45.5029C83.1171 45.8296 83.3945 46.1974 83.6948 46.5522C83.7299 46.5129 83.7591 46.4817 83.7865 46.4494C84.142 46.0291 84.4957 45.6074 84.8544 45.1894C84.9141 45.1202 84.9411 45.053 84.9408 44.9621C84.9384 44.3026 84.9411 43.6434 84.9425 42.9838C85.9597 42.9849 86.9766 42.9862 87.9937 42.9872H87.9944Z" fill="#231F20"/>
<path d="M77.8475 40C77.8462 40.9435 77.842 41.887 77.8465 42.8302C77.8472 42.9615 77.8142 42.9957 77.6781 42.9954C76.3943 42.99 75.1105 42.9944 73.8271 42.9886C73.6965 42.9879 73.676 43.0249 73.676 43.1419C73.6795 46.345 73.6778 49.5476 73.6823 52.7506C73.6823 52.8836 73.6441 52.9067 73.5181 52.906C72.5901 52.9006 71.6618 52.9016 70.7338 52.9053C70.6352 52.9057 70.6047 52.8853 70.6047 52.7829C70.6078 49.0554 70.6075 45.3278 70.6054 41.6003C70.6054 41.5172 70.6314 41.4602 70.6911 41.4025C71.141 40.9679 71.5878 40.5303 72.0353 40.0933C72.0655 40.0638 72.0926 40.0312 72.1214 40C74.0301 40 75.9388 40 77.8475 40Z" fill="#231F20"/>
<path d="M84.9432 42.9838C84.9394 42.938 84.9328 42.8926 84.9328 42.8468C84.9321 41.9484 84.9325 41.05 84.9321 40.1516C84.9321 40.1011 84.929 40.0505 84.9273 40.0003C85.951 40.0003 86.9748 40.0003 87.9986 40.0003C87.9972 40.9961 87.9962 41.9918 87.9948 42.9876C86.9776 42.9862 85.9608 42.9852 84.9436 42.9838H84.9432Z" fill="#EC4237"/>
<path d="M23.1058 40.0153C22.9773 40.0146 22.8475 40.0424 22.7208 40C22.8597 40 22.9985 40 23.1374 40C23.127 40.0051 23.1166 40.0102 23.1061 40.0153H23.1058Z" fill="#EC4237"/>
<path d="M33.5745 46.5132C33.5745 44.4016 33.5755 42.2904 33.5717 40.1788C33.5717 40.0624 33.6019 40.0343 33.72 40.0349C34.6438 40.04 35.5676 40.04 36.4917 40.0349C36.6118 40.0343 36.65 40.055 36.6497 40.1829C36.6445 41.7526 36.6472 43.3224 36.6434 44.8926C36.6434 45.0001 36.6639 45.032 36.7816 45.031C37.6058 45.0249 38.4299 45.0252 39.2537 45.031C39.3655 45.0317 39.3857 45.0011 39.3853 44.8983C39.3819 43.337 39.3843 41.7754 39.3801 40.2141C39.3801 40.098 39.41 40.0689 39.5284 40.0695C40.4567 40.0746 41.3846 40.074 42.3129 40.0699C42.4195 40.0695 42.4577 40.0845 42.4577 40.2032C42.4539 44.4176 42.4539 48.6323 42.4577 52.8467C42.4577 52.9617 42.4254 52.9827 42.315 52.982C41.3867 52.9776 40.4588 52.9776 39.5304 52.982C39.4155 52.9827 39.3798 52.9593 39.3801 52.8392C39.385 51.282 39.3812 49.7247 39.3867 48.1678C39.3871 48.0403 39.3499 48.0202 39.2298 48.0209C38.4101 48.0264 37.5901 48.0257 36.7705 48.0213C36.6691 48.0206 36.6434 48.045 36.6438 48.1448C36.6472 49.7105 36.6445 51.2762 36.6493 52.8416C36.6497 52.9627 36.6115 52.9824 36.4994 52.9817C35.5756 52.9773 34.6517 52.9769 33.7276 52.9824C33.6068 52.983 33.571 52.9613 33.5714 52.8351C33.5762 50.7279 33.5748 48.6208 33.5748 46.5132H33.5745Z" fill="#231F20"/>
<path d="M4.00833 50.0036C4.00625 49.9571 4.00278 49.911 4.00278 49.8645C4.00243 46.6323 4.00312 43.4001 4 40.1679C4 40.057 4.02152 40.0217 4.14442 40.0224C5.46711 40.0288 6.78946 40.0275 8.11215 40.0299C9.30466 40.0319 10.4968 40.036 11.6893 40.036C11.7778 40.036 11.8421 40.0577 11.9056 40.1204C12.3597 40.569 12.8169 41.0144 13.2759 41.4582C13.329 41.5094 13.3529 41.5593 13.3526 41.6336C13.3505 44.8868 13.3508 48.14 13.3522 51.3936C13.3522 51.4611 13.3356 51.5106 13.2849 51.5598C12.8239 52.0073 12.3652 52.4572 11.908 52.9084C11.8528 52.9627 11.7987 52.9902 11.7164 52.9905C10.5024 52.9919 9.28834 52.9983 8.07431 53.0003C7.49767 53.0014 6.92103 52.9946 6.34474 52.9915C6.53985 52.9891 6.73495 52.9786 6.92936 52.9868C7.04775 52.9919 7.07274 52.9528 7.07205 52.8439C7.06788 51.9473 7.06927 51.0509 7.06997 50.1542C7.06997 50.104 7.07656 50.0535 7.07969 50.0033C8.10312 50.0036 9.12656 50.0033 10.15 50.0063C10.241 50.0063 10.2826 49.9982 10.2823 49.8886C10.2781 47.6416 10.2788 45.3943 10.2809 43.1474C10.2809 43.0636 10.2666 43.0327 10.1705 43.0327C9.18593 43.0324 8.20172 43.0286 7.21716 43.0191C7.09809 43.0181 7.07066 43.0483 7.07066 43.1626C7.07448 45.3926 7.07344 47.623 7.07378 49.853C7.07378 49.9035 7.07864 49.9541 7.08107 50.0046C6.0566 50.0043 5.03212 50.0039 4.00764 50.0036H4.00833Z" fill="#231F20"/>
<path d="M58.3922 44.6859C58.3922 46.1709 58.3915 47.6562 58.3942 49.1412C58.3942 49.2365 58.3672 49.3081 58.3054 49.3811C57.3351 50.524 56.3658 51.6677 55.4 52.8144C55.3166 52.9132 55.2354 52.96 55.0976 52.9583C54.4081 52.9498 53.7183 52.9525 53.0288 52.9566C52.9296 52.9573 52.8636 52.9315 52.7987 52.8545C51.8134 51.685 50.8247 50.5186 49.8356 49.3522C49.7943 49.3037 49.7749 49.2555 49.7749 49.1921C49.7759 46.1879 49.7763 43.184 49.7738 40.1798C49.7738 40.0872 49.8044 40.0699 49.8919 40.0702C50.833 40.0729 51.7742 40.074 52.7154 40.0696C52.8192 40.0692 52.8417 40.0974 52.8414 40.1947C52.8386 42.8179 52.8396 45.4412 52.8372 48.0644C52.8372 48.1546 52.8612 48.2228 52.9209 48.292C53.2878 48.7202 53.651 49.1514 54.0141 49.5829C54.0589 49.6362 54.0821 49.6664 54.145 49.5904C54.505 49.1565 54.8702 48.7273 55.2371 48.2988C55.2962 48.2299 55.3219 48.1617 55.3219 48.0708C55.3194 45.4561 55.3212 42.8414 55.3166 40.2263C55.3166 40.0977 55.3482 40.0675 55.4788 40.0685C56.3981 40.0746 57.3177 40.0743 58.237 40.0689C58.3581 40.0682 58.3956 40.0906 58.3953 40.2178C58.3901 41.7072 58.3918 43.1966 58.3918 44.6859H58.3922Z" fill="#231F20"/>
<path d="M24.8551 45.7743C24.8551 43.9087 24.8565 42.0427 24.852 40.1771C24.852 40.0577 24.8874 40.0343 25.002 40.0349C25.9213 40.0394 26.8409 40.041 27.7602 40.0339C27.9025 40.0329 27.9255 40.077 27.9251 40.2025C27.9216 43.4137 27.923 46.6248 27.9199 49.8357C27.9199 49.9452 27.9397 49.9822 28.0636 49.9819C29.3603 49.9768 30.6569 49.9798 31.9536 49.9761C32.0598 49.9761 32.09 49.9978 32.0897 50.1057C32.0848 51.0194 32.0848 51.9333 32.0897 52.847C32.0904 52.9545 32.0605 52.9773 31.9539 52.9769C30.1327 52.9735 28.3112 52.9739 26.4899 52.9762C26.4087 52.9762 26.3549 52.9515 26.299 52.8969C25.8473 52.4521 25.3936 52.0093 24.9371 51.569C24.8767 51.5106 24.8534 51.4529 24.8534 51.3708C24.8555 49.5052 24.8551 47.6393 24.8551 45.7736V45.7743Z" fill="#231F20"/>
<path d="M47.5818 46.5322C47.5818 48.6313 47.5808 50.7303 47.5846 52.829C47.5846 52.9454 47.5655 52.9841 47.4343 52.983C46.506 52.9763 45.5777 52.9776 44.6494 52.9824C44.5376 52.983 44.5164 52.9512 44.5164 52.848C44.5192 48.633 44.5192 44.4183 44.5164 40.2032C44.5164 40.1001 44.5379 40.0685 44.6494 40.0692C45.5818 40.074 46.5147 40.0746 47.4471 40.0685C47.569 40.0679 47.5843 40.1055 47.5839 40.2097C47.5808 42.3172 47.5815 44.4247 47.5815 46.5319L47.5818 46.5322Z" fill="#231F20"/>
<path d="M4.0084 50.0036C5.03287 50.0039 6.05735 50.0043 7.08183 50.0046L7.0801 50.0029C7.07663 50.0531 7.07038 50.1037 7.07003 50.1539C7.06933 51.0506 7.0676 51.9469 7.07211 52.8436C7.07281 52.9525 7.04781 52.9915 6.92943 52.9864C6.73502 52.978 6.53991 52.9885 6.34481 52.9912C5.59111 52.9892 4.83777 52.9861 4.08442 52.9868C3.99624 52.9868 4.00145 52.9386 4.00145 52.8813C4.00215 52.4585 4.00111 52.0358 4.00215 51.6134C4.00354 51.0767 4.00631 50.5403 4.00874 50.0036H4.0084Z" fill="#EC4237"/>
</g>
<defs>
<clipPath id="clip0_4001_3906">
<rect width="84" height="13" fill="white" transform="translate(4 40)"/>
</clipPath>
</defs>
</svg>
