<svg width="92" height="92" viewBox="0 0 92 92" fill="none" xmlns="http://www.w3.org/2000/svg">
<rect x="1" y="1" width="90" height="90" rx="4" fill="white"/>
<rect x="1" y="1" width="90" height="90" rx="4" stroke="#E9ECF5"/>
<path fill-rule="evenodd" clip-rule="evenodd" d="M11.8394 71.8399V77.9042H10V68.441H11.4264L16.3578 74.6519V68.4544H18.1972V77.9042H16.7048L11.8394 71.8399ZM21.4759 73.1729C21.4749 73.5751 21.5355 73.9751 21.6556 74.3589C21.7672 74.7249 21.9433 75.0681 22.1754 75.3722C22.4002 75.6638 22.6841 75.9046 23.0085 76.0787C23.3372 76.2565 23.7105 76.3453 24.128 76.3453C24.5545 76.3453 24.9298 76.2545 25.254 76.0723C25.5782 75.8901 25.8518 75.6478 26.0737 75.3459C26.2956 75.0441 26.4649 74.704 26.5801 74.3262C26.6948 73.9527 26.7532 73.5641 26.7534 73.1734C26.7543 72.7705 26.6913 72.37 26.5667 71.9868C26.4421 71.605 26.2668 71.2669 26.0399 70.974C25.8131 70.6811 25.538 70.4478 25.2138 70.274C24.8896 70.1002 24.5227 70.0138 24.1141 70.0138C23.6877 70.0138 23.3123 70.1052 22.9881 70.2874C22.6639 70.4696 22.3884 70.7094 22.1615 71.0068C21.9346 71.3042 21.7638 71.6423 21.6487 72.0201C21.5337 72.3936 21.4758 72.7821 21.4759 73.1729ZM24.1012 77.9713C23.435 77.9713 22.8258 77.8362 22.2752 77.5647C21.7353 77.3021 21.2528 76.9351 20.8558 76.4848C20.4606 76.0365 20.1558 75.5232 19.9428 74.9453C19.7298 74.3674 19.6231 73.7771 19.6231 73.1729C19.6231 72.5419 19.7363 71.9377 19.9627 71.3603C20.189 70.7829 20.5048 70.272 20.9089 69.8277C21.3125 69.3841 21.7993 69.0241 22.3417 68.7682C22.8928 68.5061 23.4921 68.375 24.1414 68.375C24.8077 68.375 25.4164 68.515 25.9675 68.795C26.5059 69.0653 26.9859 69.4389 27.3799 69.8947C27.7728 70.3512 28.08 70.8749 28.2865 71.4407C28.497 72.0035 28.6053 72.5993 28.6062 73.2002C28.6086 73.8183 28.4934 74.4313 28.2666 75.0063C28.0484 75.5657 27.7299 76.0805 27.3268 76.5255C26.925 76.9667 26.4404 77.3245 25.9004 77.5786C25.3493 77.8407 24.7496 77.9713 24.1012 77.9713Z" fill="#222222"/>
<path fill-rule="evenodd" clip-rule="evenodd" d="M36.23 75.2521C36.23 75.0386 36.1922 74.8321 36.1168 74.6325C36.0413 74.4329 35.939 74.2572 35.81 74.1058C35.6826 73.9559 35.5262 73.8335 35.3502 73.7458C35.168 73.6559 34.9671 73.6102 34.7639 73.6123H31.3785V76.8646H34.6706C34.8824 76.8669 35.092 76.8213 35.2837 76.7311C35.4704 76.6427 35.6347 76.5246 35.7767 76.3781C35.9197 76.23 36.0328 76.0557 36.1098 75.8647C36.1898 75.6696 36.23 75.4646 36.23 75.2516V75.2521ZM31.3785 69.4806V72.6397H34.3906C34.604 72.6397 34.7991 72.5975 34.9769 72.5131C35.1546 72.4287 35.308 72.3155 35.4366 72.173C35.5652 72.0305 35.6675 71.8642 35.7429 71.6731C35.8184 71.4819 35.8561 71.2799 35.8561 71.0664C35.8575 70.853 35.8213 70.6411 35.7494 70.4403C35.6845 70.256 35.5875 70.0845 35.4629 69.9339C35.3427 69.7916 35.1925 69.6777 35.0231 69.6003C34.8497 69.5205 34.6609 69.4796 34.47 69.4806H31.3785ZM37.4428 75.4651C37.447 75.8108 37.3718 76.1529 37.2229 76.465C37.08 76.7622 36.8756 77.0257 36.6232 77.238C36.37 77.4515 36.0766 77.6158 35.7434 77.731C35.4103 77.8462 35.0523 77.9042 34.6706 77.9042H30.179V68.441H34.884C35.2127 68.441 35.5106 68.512 35.7772 68.6545C36.0438 68.797 36.2702 68.9812 36.4569 69.2076C36.6435 69.434 36.788 69.6916 36.8903 69.9806C36.9926 70.2695 37.0437 70.5605 37.0437 70.8534C37.0437 71.3245 36.926 71.7599 36.6907 72.1596C36.4554 72.5593 36.1198 72.8571 35.6844 73.0527C36.2265 73.2126 36.6549 73.5085 36.9707 73.9389C37.2865 74.3694 37.4438 74.8788 37.4438 75.4651H37.4428Z" fill="#424242"/>
<path d="M40.3353 73.439H43.2009C43.4496 73.439 43.674 73.3854 43.8741 73.2791C44.0742 73.1729 44.245 73.0284 44.3875 72.8462C44.53 72.664 44.6407 72.453 44.7211 72.2127C44.8015 71.9724 44.8408 71.7242 44.8408 71.4665C44.8423 71.209 44.7948 70.9536 44.7007 70.7139C44.6074 70.4786 44.4828 70.2695 44.3279 70.0873C44.173 69.9051 43.9898 69.7631 43.7813 69.6609C43.5761 69.5596 43.3503 69.5071 43.1215 69.5075H40.3358V73.4395L40.3353 73.439ZM39.1358 77.9038V68.441H43.1875C43.605 68.441 43.9893 68.5274 44.3403 68.7012C44.6854 68.87 44.9935 69.1056 45.2469 69.3943C45.4993 69.682 45.7 70.0112 45.8401 70.3673C45.9802 70.7171 46.0524 71.0903 46.0531 71.467C46.054 71.7898 46.0068 72.1109 45.9131 72.4197C45.8198 72.7266 45.6867 73.0041 45.5135 73.2528C45.3421 73.4998 45.1302 73.7162 44.8869 73.8928C44.6422 74.0705 44.3691 74.1996 44.0672 74.279L46.3599 77.9042H45.0006L42.8415 74.5054H40.3358V77.9042H39.1363L39.1358 77.9038Z" fill="#424242"/>
<path fill-rule="evenodd" clip-rule="evenodd" d="M48.6119 73.1729C48.6119 73.6525 48.6894 74.1172 48.8453 74.5655C48.9924 74.9993 49.2159 75.4033 49.5051 75.7585C49.786 76.1024 50.1357 76.3838 50.5318 76.5846C50.9319 76.7887 51.3758 76.8914 51.8643 76.8914C52.3707 76.8914 52.824 76.7827 53.2236 76.5648C53.6233 76.3468 53.9634 76.0628 54.2434 75.7118C54.526 75.3555 54.7425 74.9514 54.8828 74.5188C55.0293 74.0745 55.1028 73.6257 55.1028 73.1729C55.1036 72.6987 55.0247 72.2278 54.8694 71.7798C54.714 71.3305 54.4916 70.9358 54.2032 70.5937C53.9187 70.2553 53.5699 69.9767 53.177 69.7741C52.7818 69.5695 52.3444 69.4672 51.8643 69.4672C51.3579 69.4672 50.9046 69.574 50.505 69.7875C50.1116 69.9954 49.7647 70.2812 49.4852 70.6275C49.2012 70.9815 48.9824 71.383 48.8388 71.8135C48.6889 72.2511 48.6122 72.7104 48.6119 73.1729ZM51.8509 77.9713C51.1846 77.9713 50.578 77.8362 50.0313 77.5647C49.4847 77.2931 49.0161 76.9336 48.6253 76.4848C48.2346 76.036 47.9323 75.5232 47.7188 74.9453C47.5053 74.3674 47.3986 73.7771 47.3986 73.1729C47.3986 72.5419 47.5118 71.9377 47.7386 71.3603C47.9567 70.7968 48.2752 70.2776 48.6785 69.8277C49.0786 69.3833 49.5513 69.0303 50.0979 68.7682C50.6445 68.5061 51.2373 68.375 51.8772 68.375C52.5435 68.375 53.1477 68.515 53.6898 68.795C54.2229 69.0679 54.6982 69.4413 55.0894 69.8947C55.4814 70.3494 55.7884 70.8709 55.9959 71.4342C56.2068 71.9945 56.3151 72.5882 56.3157 73.1868C56.3177 73.807 56.2025 74.422 55.9761 74.9994C55.7492 75.5768 55.4384 76.0857 55.0432 76.5255C54.648 76.9654 54.1769 77.3164 53.6302 77.5786C53.0836 77.8407 52.4909 77.9713 51.8509 77.9713ZM57.9952 77.9042V68.4544H59.1947V73.6788L64.073 68.441H65.3658L61.5668 72.6129L65.5788 77.9042H64.2726L60.834 73.3059L59.1947 75.0118V77.9042H57.9952ZM73.0695 76.8378V77.9042H66.6452V68.441H72.9499V69.5074H67.8452V72.5731H72.2836V73.5725H67.8452V76.8383L73.0695 76.8378Z" fill="#424242"/>
<path d="M75.9753 73.439H78.841C79.0897 73.439 79.3141 73.3854 79.5142 73.2791C79.7143 73.1729 79.885 73.0284 80.0275 72.8462C80.17 72.664 80.2807 72.453 80.3612 72.2127C80.4416 71.9724 80.4808 71.7242 80.4808 71.4665C80.4824 71.209 80.4349 70.9536 80.3408 70.7139C80.2475 70.4786 80.1229 70.2695 79.968 70.0873C79.8131 69.9051 79.6299 69.7631 79.4213 69.6609C79.2162 69.5596 78.9904 69.5071 78.7615 69.5075H75.9758V73.4395L75.9753 73.439ZM74.7759 77.9038V68.441H78.8276C79.2451 68.441 79.6294 68.5274 79.9804 68.7012C80.3254 68.87 80.6335 69.1056 80.8869 69.3943C81.1394 69.682 81.3401 70.0112 81.4802 70.3673C81.6202 70.7171 81.6925 71.0903 81.6932 71.467C81.6941 71.7898 81.6469 72.1109 81.5532 72.4197C81.4598 72.7266 81.3268 73.0041 81.1535 73.2528C80.9821 73.4998 80.7703 73.7162 80.527 73.8928C80.2822 74.0705 80.0092 74.1996 79.7073 74.279L82 77.9042H80.6407L78.4815 74.5054H75.9758V77.9042H74.7764L74.7759 77.9038Z" fill="#424242"/>
<path fill-rule="evenodd" clip-rule="evenodd" d="M24.2155 35.4999C24.2155 23.4696 33.9684 13.7155 46 13.7155C51.7771 13.7171 57.3171 16.0128 61.4021 20.0978C65.4871 24.1828 67.7828 29.7228 67.7845 35.4999C67.7828 41.277 65.4871 46.817 61.4021 50.902C57.3171 54.987 51.7771 57.2827 46 57.2844C33.9684 57.2844 24.2155 47.5315 24.2155 35.4999Z" fill="#FD3753"/>
<mask id="mask0_1687_6838" style="mask-type:luminance" maskUnits="userSpaceOnUse" x="24" y="13" width="44" height="45">
<path d="M24 13.5H68V57.4987H24V13.5Z" fill="white"/>
</mask>
<g mask="url(#mask0_1687_6838)">
<path fill-rule="evenodd" clip-rule="evenodd" d="M46 13.9311C34.1067 13.9311 24.4311 23.6067 24.4311 35.5C24.4311 47.3933 34.1067 57.0689 46 57.0689C57.8933 57.0689 67.5689 47.3933 67.5689 35.5C67.5689 23.6067 57.8921 13.9311 46 13.9311ZM46 57.5C33.8687 57.5 24 47.6313 24 35.5C24 23.3687 33.8687 13.5 46 13.5C58.1313 13.5 68 23.3687 68 35.5C68 47.6313 58.1313 57.5 46 57.5Z" fill="#D31831"/>
</g>
<path fill-rule="evenodd" clip-rule="evenodd" d="M43.2067 44.9999C43.8421 44.3308 44.1598 43.506 44.1598 42.5243C44.1598 42.0558 44.0764 41.616 43.9094 41.2036C43.7446 40.7958 43.5064 40.4217 43.2067 40.0998C42.9052 39.7771 42.5601 39.5204 42.1701 39.331C41.7802 39.1417 41.3503 39.0457 40.8819 39.0457C40.4583 39.0457 40.0459 39.1354 39.6447 39.3136C39.2458 39.4907 38.8872 39.7472 38.5907 40.0674C38.2904 40.3913 38.05 40.7638 37.8718 41.1874C37.6941 41.6111 37.6034 42.0661 37.6052 42.5255C37.6052 42.994 37.6887 43.44 37.8556 43.8636C38.0226 44.2872 38.2568 44.656 38.5583 44.9675C38.8598 45.2789 39.2049 45.5306 39.5949 45.72C39.9848 45.9094 40.4134 46.0041 40.8819 46.0041C41.7964 46.0041 42.5713 45.6702 43.2067 45.0011V44.9999ZM38.942 46.9734C38.3528 46.7367 37.8137 46.3905 37.3535 45.953C36.8959 45.5183 36.5314 44.9953 36.282 44.4155C36.0251 43.8187 35.8945 43.1752 35.8983 42.5255C35.8932 41.8813 36.024 41.2432 36.282 40.6529C36.5387 40.0724 36.8963 39.5653 37.3535 39.1305C37.8141 38.6934 38.353 38.3472 38.942 38.1101C39.545 37.8646 40.1917 37.7425 40.8819 37.7425C41.5463 37.7374 42.2053 37.8623 42.8217 38.1101C43.4248 38.3555 43.9543 38.6956 44.4115 39.1305C44.8687 39.5653 45.2263 40.0724 45.4817 40.6529C45.7371 41.2335 45.8667 41.8565 45.8667 42.5255C45.8667 43.1946 45.7384 43.825 45.4817 44.4155C45.2333 44.9955 44.8692 45.5187 44.4115 45.953C43.9509 46.3906 43.4114 46.7369 42.8217 46.9734C42.22 47.2188 41.5734 47.3409 40.8819 47.3409C40.1904 47.3409 39.545 47.2188 38.942 46.9734ZM53.3745 30.9512C53.7644 30.773 54.1108 30.5213 54.411 30.1986C54.7155 29.8711 54.959 29.4918 55.1299 29.0786C55.3093 28.6562 55.3978 28.2089 55.3978 27.7405C55.4008 27.2877 55.3153 26.8386 55.1461 26.4186C54.9792 26.0062 54.7449 25.6387 54.4434 25.3147C54.1419 24.9908 53.7918 24.7354 53.3894 24.546C52.9924 24.3575 52.5581 24.2605 52.1186 24.262C51.6919 24.2627 51.2702 24.354 50.8814 24.5298C50.4825 24.707 50.1197 24.9562 49.8112 25.2649C49.4997 25.5776 49.2543 25.9452 49.0749 26.3688C48.8955 26.7924 48.807 27.2496 48.807 27.7392C48.807 28.2077 48.8905 28.6487 49.0574 29.0599C49.2244 29.471 49.4586 29.8411 49.7601 30.165C50.0588 30.4866 50.4167 30.7476 50.8142 30.9337C51.2223 31.1247 51.668 31.2218 52.1186 31.2178C52.5513 31.2207 52.9794 31.1293 53.3732 30.9499L53.3745 30.9512ZM55.1299 47.1403L46 35.4999L36.7007 24.1274L37.8706 23.1245L46.9344 34.7312L56.2998 46.1037L55.1299 47.1403ZM50.1638 32.1559C49.5716 31.9243 49.0313 31.5774 48.574 31.1356C48.128 30.7007 47.7717 30.1937 47.5038 29.6143C47.2348 29.0265 47.0978 28.3869 47.1026 27.7405C47.1026 27.0714 47.2372 26.4473 47.5038 25.8679C47.7704 25.2886 48.128 24.7815 48.574 24.3454C49.0338 23.9027 49.5732 23.551 50.1638 23.3088C50.778 23.0522 51.4296 22.9251 52.1198 22.9251C52.8101 22.9251 53.4579 23.0534 54.0597 23.3088C54.6475 23.5563 55.186 23.9074 55.6495 24.3454C56.1067 24.7815 56.463 25.2886 56.7197 25.8679C56.9763 26.4473 57.1047 27.0727 57.1047 27.7405C57.1047 28.4083 56.9763 29.0337 56.7197 29.6143C56.463 30.1949 56.1067 30.7007 55.6495 31.1356C55.1885 31.5727 54.6491 31.9189 54.0597 32.1559C53.4433 32.4041 52.7843 32.5289 52.1198 32.5235C51.4503 32.5279 50.7861 32.4031 50.1638 32.1559Z" fill="white"/>
</svg>
