<svg width="92" height="92" viewBox="0 0 92 92" fill="none" xmlns="http://www.w3.org/2000/svg">
<rect x="1" y="1" width="90" height="90" rx="4" fill="#149399"/>
<rect x="1" y="1" width="90" height="90" rx="4" stroke="#E9ECF5"/>
<g clip-path="url(#clip0_1766_13399)">
<path d="M13.7856 40.1277C15.4766 40.0465 17.1388 40.7412 18.0191 42.0753C20.2236 45.4104 18.0191 50.6456 14.133 51.2968C11.0578 51.8114 8.65828 50.709 8.07915 47.5421C8.07915 47.5421 7.30697 43.7814 10.5887 41.2084C10.5887 41.2084 11.5752 40.2326 13.7856 40.1277ZM10.9478 46.2496C10.9439 47.9281 11.8165 48.8484 13.3416 48.7534C14.55 48.6802 15.2971 47.9419 15.6909 46.8533C16.1176 45.6756 16.2797 44.4405 15.3801 43.4034C15.0925 43.0728 14.5635 42.8571 14.1176 42.7977C12.2933 42.5563 10.9536 44.0486 10.9478 46.2476V46.2496Z" fill="white"/>
<path d="M76.5253 40.1277C78.2164 40.0465 79.8785 40.7412 80.7588 42.0753C82.9633 45.4104 80.7588 50.6456 76.8728 51.2968C73.7975 51.8114 71.398 50.709 70.8189 47.5421C70.8189 47.5421 70.0467 43.7814 73.3285 41.2084C73.3285 41.2084 74.3149 40.2326 76.5253 40.1277ZM73.6875 46.2496C73.6837 47.9281 74.5562 48.8484 76.0813 48.7534C77.2897 48.6802 78.0368 47.9419 78.4306 46.8533C78.8573 45.6756 79.0194 44.4405 78.1198 43.4034C77.8322 43.0728 77.3033 42.8571 76.8573 42.7977C75.033 42.5563 73.6933 44.0486 73.6875 46.2476V46.2496Z" fill="#FFC10D"/>
<path d="M59.6705 54.5904L60.0083 51.8965C60.1724 51.2374 59.9369 52.4844 60.0701 51.8075C63.6723 53.4246 65.5468 53.0841 66.5159 50.6338C65.7205 50.7109 64.9831 50.8871 64.2631 50.8356C61.3114 50.6258 59.6686 48.5436 59.9543 45.4658C60.3095 41.6339 63.5411 39.2251 67.0197 40.1989C68.9328 40.7333 70.2262 42.2297 70.2031 44.2743C70.1702 46.9483 69.7243 49.5887 68.7166 52.0767C67.9039 54.0817 66.3344 55.1109 64.238 55.2732C61.516 55.483 59.6705 54.5904 59.6705 54.5904ZM62.6608 45.8399C62.6086 47.7915 64.1125 48.8781 65.79 48.1022C67.2359 47.4332 68.0602 44.8265 67.1549 43.5103C66.8595 43.0788 66.2746 42.6968 65.7688 42.6077C64.0005 42.297 62.7187 43.6845 62.6608 45.8399Z" fill="white"/>
<path d="M57.6763 48.2922L57.3057 50.9069C55.7594 51.4532 53.7131 51.6372 52.1128 51.178C50.3426 50.6713 49.2827 49.4699 48.916 47.6114C48.1708 43.8547 50.607 40.385 54.1822 40.1356C57.1686 39.9277 59.2497 41.9664 59.1686 45.0363C59.1551 45.5232 59.0701 46.0081 59.0026 46.6217H51.5221C51.3985 46.6217 51.6707 47.3541 51.7055 47.4332C51.8657 47.7935 52.0993 48.1042 52.4332 48.312C53.1205 48.7435 54.1031 48.7712 54.8888 48.7732C55.3637 48.7732 55.8386 48.7376 56.3057 48.6564C56.4621 48.6287 57.6532 48.4446 57.6744 48.2903L57.6763 48.2922ZM51.858 44.68H56.7478C56.5779 43.3183 55.8386 42.6057 54.5896 42.5186C53.2479 42.4256 52.2942 43.1659 51.8599 44.68H51.858Z" fill="white"/>
<path d="M18.5036 51.3384C18.9746 48.9019 19.2989 46.5168 19.9186 44.2169C20.6174 41.622 23.1058 40.0465 25.7119 40.2563C28.1366 40.4523 29.6925 42.3326 29.5554 44.9037C29.54 45.2006 29.5149 45.4975 29.4647 45.7884C29.1423 47.6312 28.8103 49.4699 28.4744 51.3502H25.6559C25.9436 49.658 26.2216 48.0132 26.5015 46.3664C26.5227 46.2377 26.5671 46.1111 26.5883 45.9804C26.8335 44.494 26.4667 43.5835 25.4957 43.2569C24.459 42.9086 23.0479 43.6053 22.6116 44.8384C22.2873 45.7568 22.1734 46.7543 21.99 47.7222C21.7641 48.9157 21.5653 50.1152 21.351 51.3344H18.5055L18.5036 51.3384Z" fill="white"/>
<path d="M38.1942 42.9897C38.1826 43.0313 36.7232 42.7581 36.6016 42.7324C35.6499 42.5345 33.8237 42.196 33.3912 43.4469C33.2619 43.821 33.5978 44.1872 33.926 44.3119C34.5244 44.5395 35.1653 44.6444 35.7869 44.8067C37.5031 45.252 38.2888 46.0101 38.3892 47.3026C38.5147 48.9038 37.7348 50.2478 36.1981 50.8851C35.2213 51.2909 34.2484 51.4571 33.2696 51.4294C32.1693 51.3977 31.0631 51.1226 29.9435 50.6634C30.1172 49.745 30.2678 48.9474 30.3855 48.318C31.2002 48.4664 31.9724 48.7831 32.787 48.9256C33.6731 49.082 34.7985 49.2106 35.4472 48.4209C35.8004 47.9894 35.5205 47.4491 35.036 47.2729C34.2542 46.9879 33.4221 46.8513 32.6287 46.594C30.5438 45.9171 29.8778 43.6409 31.2175 41.8516C31.9492 40.8758 32.9607 40.4008 34.1036 40.2385C34.1036 40.2385 36.4877 39.997 38.4027 40.6997L38.1923 42.9877L38.1942 42.9897Z" fill="white"/>
<path d="M48.2789 48.6604C48.1476 49.4442 48.0569 50.1231 47.9083 50.7882C47.8677 50.9742 47.6901 51.2038 47.5202 51.2731C45.2095 52.2053 42.9393 50.3527 43.3389 47.8093C43.8543 44.5316 44.4547 41.2697 45.0319 37.9247H47.8368C47.7094 38.7343 47.5839 39.5359 47.4353 40.4701H49.692C49.5781 41.1866 49.4874 41.7527 49.3851 42.3841H47.0743C46.7577 44.1753 46.4025 45.9052 46.1651 47.651C46.0183 48.7277 46.6612 49.0345 48.2789 48.6584V48.6604Z" fill="white"/>
<path d="M43.2713 40.0208C42.6014 43.7973 41.9489 47.649 41.3003 51.3028H38.5263C38.7502 49.9766 38.9587 48.7198 39.1768 47.4649C39.5533 45.2996 39.9548 43.1382 40.3042 40.9689L40.4239 40.0208H43.2713Z" fill="white"/>
<path d="M43.6574 37.8436H40.81L40.4567 39.2291H43.4064L43.6574 37.8436Z" fill="white"/>
<path d="M82.3373 40.0315C82.5169 39.8296 82.503 39.5166 82.3061 39.3324C82.1092 39.1482 81.8039 39.1626 81.6243 39.3644L80.6614 40.4464C80.4817 40.6482 80.4957 40.9612 80.6926 41.1454C80.8895 41.3296 81.1947 41.3153 81.3744 41.1134L82.3373 40.0315Z" fill="white"/>
<path d="M80.1086 38.3958C80.2196 38.1473 80.1132 37.8536 79.8709 37.7398C79.6286 37.6259 79.3421 37.735 79.2311 37.9835L78.636 39.315C78.5249 39.5634 78.6313 39.8571 78.8737 39.971C79.116 40.0848 79.4024 39.9757 79.5134 39.7273L80.1086 38.3958Z" fill="white"/>
<path d="M83.6828 42.8259C83.9326 42.7307 84.0599 42.4459 83.9671 42.1897C83.8743 41.9336 83.5965 41.803 83.3466 41.8982L82.0075 42.4083C81.7577 42.5034 81.6304 42.7883 81.7232 43.0444C81.816 43.3006 82.0938 43.4311 82.3436 43.336L83.6828 42.8259Z" fill="white"/>
</g>
<defs>
<clipPath id="clip0_1766_13399">
<rect width="76" height="17.6098" fill="white" transform="translate(8 37.6951)"/>
</clipPath>
</defs>
</svg>
