<svg width="92" height="92" viewBox="0 0 92 92" fill="none" xmlns="http://www.w3.org/2000/svg">
<rect x="1" y="1" width="90" height="90" rx="4" fill="#FDC924"/>
<rect x="1" y="1" width="90" height="90" rx="4" stroke="#E9ECF5"/>
<g clip-path="url(#clip0_1956_6932)">
<path d="M14.7838 56.543C14.6691 58.023 14.3825 58.5923 13.0065 58.5923C12.0319 58.5923 12.3759 58.5923 11.4013 58.5923C11.172 58.5923 11.0573 58.5354 11.0573 58.2507C11.0573 55.6892 10.9427 53.0707 11.2293 50.5092C11.5733 47.6061 13.6372 45.7846 16.733 45.3861C17.421 45.2723 18.0516 45.2723 18.7395 45.2723C19.0262 45.2723 19.1409 45.3292 19.1409 45.6138C19.1409 46.5815 19.0835 47.5492 19.1409 48.46C19.1409 48.7446 19.0262 48.8584 18.7395 48.8584C18.1662 48.8584 17.5929 48.8015 17.0196 48.9154C15.7011 49.143 14.9558 49.883 14.8984 51.1923C14.8984 51.42 14.8411 51.7046 14.8411 51.9323C14.8411 52.843 14.8411 53.8107 14.8411 54.7215" fill="black"/>
<path d="M52.1056 56.7139C52.1056 57.9662 51.1884 58.8769 49.9844 58.8769C48.7805 58.8769 47.8632 58.0231 47.8059 56.7708C47.8059 54.0385 47.8059 51.3062 47.8632 48.5739C47.8632 47.4923 48.8952 46.6385 49.9844 46.5815C51.131 46.5815 52.1056 47.4354 52.1056 48.5739C52.163 49.94 52.1056 51.3062 52.1056 52.6723" fill="black"/>
<path d="M44.4234 33.0338C43.3915 32.18 42.5315 31.3831 41.6716 30.6431C41.4423 30.4723 41.2703 30.5861 41.0409 30.6431C40.0663 30.8708 39.0917 30.4723 38.6331 29.7323C38.1744 28.9923 38.3464 28.0815 39.0344 27.5123C39.7797 26.8861 41.0409 26.8292 41.8436 27.3985C42.6462 27.9677 42.8755 28.9354 42.3595 29.7323C42.1302 30.0169 42.2449 30.1877 42.4742 30.3585C43.4488 31.1554 44.4234 32.0092 45.3407 32.8061C45.5127 32.92 45.6847 33.0338 45.8567 33.0908C46.3153 33.2615 46.602 33.66 46.4873 34.1154C46.43 34.6277 46.086 34.9692 45.57 34.9692C43.9074 35.0261 42.2449 34.9692 40.5823 34.9692C39.9517 34.9692 39.5504 34.4569 39.6077 33.9446C39.6077 33.3754 40.0663 32.9769 40.7543 32.9769C41.7289 32.9769 42.6462 32.9769 43.6208 32.9769C43.7928 33.0338 44.0221 33.0338 44.4234 33.0338Z" fill="white"/>
<path d="M55.4881 33.1477C56.7494 33.1477 57.9533 33.1477 59.1572 33.1477C59.9599 33.1477 60.4185 33.5462 60.4185 34.1723C60.4185 34.7415 59.9025 35.14 59.1572 35.14C57.6093 35.14 56.0614 35.1969 54.5135 35.0831C53.9402 35.0262 53.5962 34.7985 53.4816 34.2862C53.3669 33.7738 53.5962 33.3754 54.1122 33.1477C54.2842 33.0908 54.4562 32.9769 54.5708 32.8062C55.4881 31.9523 56.3481 31.0985 57.2654 30.2446C57.4947 30.0169 57.552 29.8462 57.4373 29.5615C57.0934 28.7077 57.38 27.8538 58.1826 27.3415C59.0999 26.9431 60.3039 27 61.0491 27.6831C61.6798 28.2523 61.8518 29.1062 61.3931 29.8462C60.9345 30.5862 59.8452 31.0985 58.9853 30.7569C58.24 30.4723 57.896 30.7569 57.4947 31.1554C56.864 31.7815 56.2334 32.3508 55.6028 32.92C55.5455 32.9769 55.5455 32.9769 55.4881 33.1477Z" fill="white"/>
<path d="M52.7363 32.92C52.7363 34.2862 51.4177 35.4246 49.8698 35.4246C48.3219 35.4246 47.0033 34.2862 47.0033 32.92C47.0033 31.5539 48.3792 30.3585 49.9271 30.4154C51.5323 30.4154 52.7936 31.5539 52.7363 32.92Z" fill="white"/>
<path d="M36.6265 57.1692C37.7158 58.3077 38.1171 58.5923 39.0344 58.82C41.7862 59.5031 44.3087 58.3646 45.5127 55.86C46.0286 54.7784 46.258 53.5831 46.3153 52.4446C46.3153 51.9323 46.3153 51.4769 46.3153 50.9646C46.3726 49.4846 45.8567 48.1184 44.882 46.9231C44.4807 46.4677 44.0794 46.0123 43.3915 45.9554C41.6142 45.1015 39.7797 44.8738 37.8304 45.3292C35.5372 45.8415 33.588 46.8092 33.0721 49.2C32.9574 49.8261 32.9001 50.3954 32.9001 51.0215C32.9001 53.0138 32.9001 55.0061 32.8427 57.0554C32.8427 59.1615 32.7854 61.2677 32.7854 63.3738C32.7854 63.6015 32.8427 63.7154 33.1294 63.7154C33.6454 63.7154 34.1613 63.7154 34.7346 63.7154C35.7666 63.6584 36.4545 62.9754 36.4545 62.0077M42.1302 54.4369C41.6716 55.4615 40.8116 56.0308 39.6077 55.9738C38.3464 55.9738 37.5438 55.3477 37.0278 54.3231C36.6838 53.64 36.6265 52.8431 36.6265 52.1031C36.6838 51.2492 36.6838 50.4523 37.0278 49.7123C37.4865 48.6308 38.2891 48.0615 39.5503 48.0046C40.7543 47.9477 41.6716 48.46 42.1875 49.4846C42.8755 51.1923 42.8755 52.8431 42.1302 54.4369Z" fill="black"/>
<path d="M67.0115 43.1661C67.0115 42.3692 66.3235 41.6862 65.4636 41.5723C64.9476 41.5154 64.4316 41.5723 63.8583 41.5154C63.457 41.5154 63.3423 41.5723 63.3423 41.9708C63.3997 42.9385 63.3423 43.9061 63.3423 44.8169C63.3423 45.5569 63.3423 46.1831 63.3423 46.8662C62.3677 45.7846 61.5078 45.2723 59.7879 45.1015C58.6413 44.9877 57.552 45.2723 56.5774 45.7846C56.0614 46.0692 56.1188 46.1262 55.8894 46.2969C55.2015 46.8662 54.7428 47.6061 54.2842 48.4031C53.7682 49.4277 53.5962 50.3385 53.5389 51.42C53.4816 52.4446 53.5389 53.4692 53.7682 54.4369C54.2269 56.4292 55.2015 58.08 57.4947 58.7062C58.9853 59.1046 60.4758 59.2185 61.9664 58.82C65.2342 58.0231 66.7248 56.8277 66.8395 53.5831C67.0688 50.1677 67.0115 46.6385 67.0115 43.1661ZM62.8837 54.4369C62.4251 55.4615 61.6798 56.0877 60.4758 56.1446C59.2719 56.2015 58.2973 55.7462 57.8387 54.6646C57.0934 53.0708 57.036 51.42 57.7813 49.7692C58.24 48.6877 59.1572 48.1185 60.4758 48.1754C61.6798 48.2323 62.597 48.8585 62.9984 49.9969C63.285 50.6231 63.3423 51.3062 63.3423 52.0462C63.285 52.8431 63.2277 53.6969 62.8837 54.4369Z" fill="black"/>
<path d="M31.8108 48.8584C31.8108 47.2077 31.0082 46.0692 29.3456 45.5C27.511 44.8738 25.6192 44.8169 23.7273 45.2154C22.0074 45.5569 20.8034 46.5815 20.2875 48.2323C20.1728 48.6308 20.2301 48.8015 20.6888 48.7446C21.3194 48.6877 22.0074 48.7446 22.638 48.7446C23.2113 48.7446 23.8419 48.8584 24.2432 48.2323C24.3006 48.1184 24.5299 48.0615 24.7019 48.0046C25.6765 47.72 26.6511 47.7769 27.6257 48.1184C28.027 48.2323 28.199 48.5169 28.2563 48.9154C28.3137 49.3138 28.0843 49.5984 27.7977 49.7692C27.3391 50.0538 26.8231 50.1677 26.2498 50.2815C25.1605 50.4523 24.0139 50.5092 22.982 50.8508C21.8927 51.1923 20.8608 51.5908 20.2875 52.5584C18.6822 55.2338 20.2875 58.4215 23.5553 58.8769C24.7019 59.0477 25.8485 58.9338 26.9377 58.82C29.5176 58.5354 31.3522 57.1692 31.6388 55.0061C31.8108 53.5831 31.7535 52.5015 31.8108 51.4769C31.8108 50.3954 31.8108 49.6554 31.8108 48.8584ZM28.2563 53.0138C28.2563 55.12 26.9377 56.3154 24.8739 56.2015C23.9566 56.1446 23.3833 55.6892 23.2686 54.9492C23.0966 54.0954 23.4979 53.4123 24.3006 53.0708C24.8739 52.8431 25.5045 52.7292 26.1351 52.6154C26.5364 52.5015 26.9377 52.4446 27.3391 52.3308C28.2563 52.0461 28.2563 51.9892 28.2563 53.0138Z" fill="black"/>
<path d="M56.6347 45.8415C54.7428 47.0938 53.9402 48.9154 53.7109 51.0215C53.7109 51.1923 53.6535 51.3061 53.6535 51.4769C53.6535 50.5661 53.6535 49.5984 53.6535 48.6877C53.6535 46.5815 52.4496 45.5 50.2137 45.3861C48.9525 45.3292 47.8059 45.5569 47.0033 46.5246C46.5446 47.0938 46.3726 47.72 46.3726 48.4031C46.3726 49.7123 46.3726 51.0784 46.3153 52.3877C46.258 51.1354 46.258 49.94 45.7993 48.7446C45.3407 47.5492 44.6527 46.5246 43.4488 45.8984C43.4488 43.7923 43.5061 41.6292 43.5061 39.5231C43.5061 37.7015 44.9394 36.3354 46.8886 36.2784C49.0098 36.2784 51.131 36.2784 53.3096 36.2784C55.3161 36.2784 56.692 37.7584 56.692 39.58C56.5774 41.7431 56.6347 43.7923 56.6347 45.8415Z" fill="white"/>
<path d="M80.8853 50.6231C80.4267 47.3215 78.1335 45.3292 74.6363 45.2723C71.5979 45.2154 69.4193 46.5246 68.502 48.9154C68.1007 49.94 67.9287 51.0784 67.9861 52.1031C67.9861 52.3308 67.9861 52.5015 67.9861 52.6723C68.1007 54.2092 68.2727 55.7461 69.3046 56.9984C70.8526 58.8769 73.0884 59.3892 75.439 59.1615C78.1908 58.8769 79.9107 57.3969 80.656 54.8923C81.0573 53.4692 81.1146 52.0461 80.8853 50.6231ZM77.3309 51.9892C77.3309 52.9 77.2162 53.6969 76.9295 54.4369C76.2989 56.0877 74.579 56.7138 73.0311 55.86C72.5151 55.5754 72.1712 55.12 71.9992 54.6077C71.5405 53.2415 71.4259 51.8184 71.7698 50.4523C72.1138 48.9723 73.1458 48.1754 74.6363 48.2323C75.8976 48.2892 76.9295 49.2 77.2162 50.6231C77.3309 51.1354 77.3882 51.5908 77.3309 51.9892Z" fill="black"/>
<path d="M47.8059 60.1862H49.0098C49.5258 60.1862 49.9271 60.2431 50.2137 60.4139C50.4431 60.5846 50.5577 60.8123 50.5577 61.1539C50.5577 61.3815 50.5004 61.5523 50.3857 61.7231C50.2711 61.8939 50.1564 61.9508 49.9844 62.0077C50.2137 62.0646 50.3857 62.1785 50.5004 62.2923C50.6151 62.4631 50.6724 62.6339 50.6724 62.8615C50.6724 63.2031 50.5577 63.4877 50.2711 63.6585C50.0418 63.8292 49.6978 63.9431 49.2391 63.9431H47.8059V60.1862ZM48.6085 61.6662H49.0671C49.2965 61.6662 49.4684 61.6092 49.5258 61.5523C49.6404 61.4954 49.6978 61.3815 49.6978 61.2108C49.6978 61.04 49.6404 60.9831 49.5258 60.8692C49.4111 60.8123 49.2391 60.7554 49.0098 60.7554H48.6085V61.6662ZM48.6085 62.3492V63.3169H49.1245C49.3538 63.3169 49.5258 63.26 49.6404 63.2031C49.7551 63.1462 49.8124 62.9754 49.8124 62.8046C49.8124 62.4631 49.5831 62.3492 49.1245 62.3492H48.6085Z" fill="black"/>
<path d="M52.507 64V60.1862H53.3096V64H52.507Z" fill="black"/>
<path d="M58.4693 64H57.552L56.52 62.4062L56.1761 62.6338V64H55.3734V60.1862H56.1761V61.9508L56.52 61.4954L57.552 60.1862H58.4693L57.1507 61.8938L58.4693 64Z" fill="black"/>
<path d="M62.1957 64H59.9598V60.1862H62.1957V60.8692H60.8198V61.7231H62.1384V62.4062H60.8198V63.3739H62.1957V64Z" fill="black"/>
<path d="M68.0434 64H67.2408V60.8692H66.2088V60.1862H69.1327V60.8692H68.1007L68.0434 64Z" fill="black"/>
<path d="M73.0884 64L72.8018 63.0892H71.4259L71.1392 64H70.2793L71.6552 60.1862H72.6298L74.0057 64H73.0884ZM72.6298 62.4062C72.4005 61.6092 72.2285 61.0969 72.1712 60.9831C72.1138 60.8692 72.1138 60.8123 72.1138 60.7554C72.0565 60.9831 71.8845 61.5523 71.5979 62.4062H72.6298Z" fill="black"/>
<path d="M78.6495 64H77.7322L76.8149 62.5769L75.8976 64H75.0377L76.2989 62.0077L75.095 60.1862H76.0123L76.8149 61.5523L77.6175 60.1862H78.4775L77.2735 62.0646L78.6495 64Z" fill="black"/>
<path d="M80.1974 64V60.1862H81V64H80.1974Z" fill="black"/>
</g>
<defs>
<clipPath id="clip0_1956_6932">
<rect width="70" height="38" fill="white" transform="translate(11 27)"/>
</clipPath>
</defs>
</svg>
