<svg width="92" height="92" viewBox="0 0 92 92" fill="none" xmlns="http://www.w3.org/2000/svg">
<rect x="1" y="1" width="90" height="90" rx="4" fill="white"/>
<rect x="1" y="1" width="90" height="90" rx="4" stroke="#E9ECF5"/>
<g clip-path="url(#clip0_301_35)">
<path d="M23.0781 33.8341C22.2529 33.8828 21.5028 33.8697 20.7709 33.98C19.4309 34.1465 18.2006 34.8137 17.3213 35.8508C16.442 36.888 15.9771 38.2202 16.0177 39.5863C16.0177 42.2987 16.0116 45.0112 16.0292 47.7236C16.0292 48.1584 15.8804 48.3132 15.4637 48.3057C14.5667 48.2885 13.6705 48.2954 12.7722 48.294C12.5016 48.294 12.2987 48.2427 12.2987 47.8886C12.3325 45.1782 12.3461 42.4686 12.3853 39.7589C12.3469 37.3952 13.1768 35.1013 14.7142 33.3219C16.3198 31.5272 18.5633 30.4507 20.9522 30.3287C21.4703 30.2822 21.9959 30.3246 22.5181 30.3102C22.8671 30.3007 23.0836 30.4027 23.0808 30.8033C23.0727 31.7866 23.0781 32.77 23.0781 33.8341Z" fill="#00BBB4"/>
<path d="M40.1753 39.283C39.3109 40.212 38.4576 41.1516 37.6158 42.1015C37.0623 42.7972 36.3755 43.3723 35.5966 43.7919C34.8177 44.2116 33.9629 44.4673 33.0838 44.5435C32.2565 44.6747 31.4114 44.4724 30.7298 43.9799C34.0605 40.7566 37.3026 37.521 40.4567 34.2218C40.0527 33.7052 39.5833 33.2448 39.0606 32.8522C37.6169 31.4474 35.7547 30.5657 33.7642 30.3445C32.5288 30.2084 31.2789 30.3406 30.0979 30.7322C28.9169 31.1238 27.832 31.7659 26.9154 32.6155C25.9989 33.4651 25.2719 34.5029 24.7828 35.6594C24.2937 36.816 24.0539 38.0649 24.0792 39.3227C24.1225 43.3513 26.2742 46.0884 29.8505 47.5928C34.0037 49.3404 37.9878 47.4381 40.6597 44.0587C41.2608 43.2963 41.849 42.5215 42.4244 41.7345C41.7312 40.8661 40.9797 40.047 40.1753 39.283ZM28.0532 41.3236C27.2151 39.9575 27.4796 37.4745 28.7655 35.8892C29.5085 34.9769 30.5211 34.33 31.6542 34.0436C32.7874 33.7571 33.9815 33.8462 35.0609 34.2978L28.0532 41.3236Z" fill="#007878"/>
<path d="M75.6698 30.25C75.4838 30.6417 74.8128 32.0373 74.618 32.4249C73.9334 33.7848 73.2063 35.1229 72.5076 36.4754C72.1578 37.1519 71.8156 37.8319 71.4889 38.5201C71.1622 39.2083 70.5513 40.571 70.5513 40.571L65.4694 30.25H61.3885C61.3885 30.25 67.5866 42.0084 70.4431 48.2139C71.7838 45.6994 73.0812 43.1629 74.3833 40.6258C75.4655 38.5092 76.5478 36.3918 77.6585 34.2882C78.2132 33.2343 79.75 30.25 79.75 30.25H75.6698Z" fill="#00BBB4"/>
<path d="M55.1405 30.2849C54.9544 30.6766 54.2834 32.0729 54.0886 32.4598C53.4041 33.8205 52.6769 35.1578 51.9782 36.5103C51.6285 37.1868 51.2862 37.8668 50.9595 38.555C50.6328 39.2432 50.0227 40.6094 50.0227 40.6094L44.94 30.2849H40.8626C40.8626 30.2849 47.0599 42.0433 49.9165 48.2488C51.2578 45.7343 52.5545 43.1979 53.8566 40.6614C54.9389 38.5441 56.0212 36.4274 57.1318 34.3231C57.6865 33.2699 59.224 30.2829 59.224 30.2829L55.1405 30.2849Z" fill="#00BBB4"/>
<path d="M12.25 54.7974H75.6441V54.9878H12.25V54.7974Z" fill="#F47900"/>
<path d="M20.4895 60.1271C20.6272 60.2916 20.7012 60.5011 20.6978 60.7167C20.7032 60.8518 20.679 60.9864 20.627 61.111C20.575 61.2355 20.4964 61.3469 20.3968 61.4371C20.1489 61.6345 19.8376 61.7321 19.5229 61.711H18.17V58.0296H19.4999C19.7963 58.0086 20.0904 58.0956 20.3292 58.2747C20.4925 58.4352 20.5923 58.6506 20.6099 58.8803C20.6274 59.1101 20.5615 59.3384 20.4246 59.5224C20.2996 59.6681 20.13 59.7671 19.9429 59.8039C20.1561 59.8456 20.3489 59.9596 20.4895 60.1271ZM18.6415 59.6423H19.4248C19.6145 59.6553 19.8023 59.5978 19.9531 59.4806C20.0151 59.4235 20.0637 59.3531 20.0954 59.2746C20.1271 59.1961 20.1411 59.1113 20.1364 59.0266C20.1406 58.9437 20.1266 58.861 20.0954 58.7842C20.0641 58.7075 20.0165 58.6387 19.9558 58.5829C19.7976 58.4629 19.6016 58.4054 19.4045 58.4213H18.6415V59.6423ZM20.0099 61.1392C20.0747 61.0767 20.1262 61.0014 20.1612 60.918C20.1962 60.8346 20.2139 60.7448 20.2134 60.6542C20.2129 60.5636 20.1941 60.474 20.1582 60.391C20.1223 60.3081 20.07 60.2334 20.0045 60.1716C19.8376 60.0461 19.6323 59.9843 19.4248 59.997H18.6415V61.3118H19.435C19.6407 61.3249 19.8445 61.2638 20.0099 61.1392Z" fill="black"/>
<path d="M23.8675 58.0296L22.677 60.312V61.7048H22.2035V60.312L21.0076 58.0262H21.5542L22.4457 59.8066L23.3325 58.0262L23.8675 58.0296Z" fill="black"/>
<path d="M28.179 58.3535C28.4866 58.6062 28.6956 58.9612 28.7689 59.3553H27.8361C27.7729 59.1919 27.6623 59.0518 27.5188 58.9534C27.3683 58.8537 27.1913 58.8028 27.0115 58.8075C26.8928 58.8034 26.7747 58.8272 26.6665 58.877C26.5583 58.9268 26.463 59.0012 26.3879 59.0944C26.2333 59.3191 26.1504 59.5863 26.1504 59.86C26.1504 60.1338 26.2333 60.401 26.3879 60.6256C26.4634 60.7181 26.5589 60.7918 26.6671 60.8411C26.7752 60.8904 26.893 60.9139 27.0115 60.9098C27.1913 60.9145 27.3683 60.8636 27.5188 60.7639C27.6613 60.6668 27.7718 60.5287 27.8361 60.3674H28.7689C28.694 60.7602 28.4853 61.1138 28.179 61.3665C27.8505 61.6231 27.4437 61.7551 27.0291 61.7397C26.7027 61.7468 26.3805 61.6648 26.0963 61.5021C25.8299 61.346 25.614 61.115 25.4747 60.8372C25.3306 60.5326 25.2559 60.1991 25.2559 59.8614C25.2559 59.5236 25.3306 59.1902 25.4747 58.8856C25.614 58.6075 25.8299 58.3763 26.0963 58.22C26.3806 58.0576 26.7028 57.9757 27.0291 57.983C27.4433 57.9675 27.8499 58.0985 28.179 58.3535Z" fill="black"/>
<path d="M30.9233 58.9116C31.0787 59.0092 31.201 59.1525 31.2737 59.3225V58.7952H32.153V61.7069H31.2737V61.1796C31.2012 61.3496 31.0789 61.493 30.9233 61.5905C30.7526 61.695 30.5558 61.7476 30.3564 61.7418C30.1315 61.7455 29.9104 61.6829 29.7199 61.5617C29.5264 61.4349 29.3727 61.2548 29.2769 61.0426C29.1698 60.7918 29.1145 60.5215 29.1145 60.2483C29.1145 59.9751 29.1698 59.7047 29.2769 59.4539C29.3735 59.243 29.5271 59.064 29.7199 58.9376C29.9105 58.8167 30.1315 58.7541 30.3564 58.7575C30.556 58.7529 30.7528 58.8064 30.9233 58.9116ZM30.1839 59.7333C30.0716 59.8835 30.0108 60.0667 30.0108 60.2551C30.0108 60.4435 30.0716 60.6268 30.1839 60.7769C30.3058 60.8981 30.47 60.9655 30.6408 60.9646C30.8116 60.9637 30.9751 60.8945 31.0958 60.7721C31.2109 60.6246 31.2736 60.4421 31.2736 60.2541C31.2736 60.0661 31.2109 59.8836 31.0958 59.7361C31.0374 59.6734 30.9666 59.6241 30.888 59.5913C30.8094 59.5584 30.7248 59.5429 30.6399 59.5457C30.5552 59.5418 30.4707 59.5562 30.3921 59.5881C30.3135 59.62 30.2425 59.6686 30.1839 59.7306V59.7333Z" fill="black"/>
<path d="M34.0646 58.9219C34.235 58.8186 34.4301 58.7646 34.6287 58.7657V59.7203H34.3764C34.1845 59.709 33.9942 59.7622 33.8353 59.8717C33.7658 59.9357 33.7121 60.0153 33.6785 60.1042C33.6449 60.193 33.6323 60.2886 33.6418 60.3832V61.7082H32.7625V58.7965H33.6418V59.3444C33.7473 59.1713 33.8923 59.0264 34.0646 58.9219Z" fill="black"/>
<path d="M38.0487 60.8187C37.8971 61.0977 37.6677 61.3254 37.3892 61.4734C37.0757 61.6364 36.7269 61.7172 36.3745 61.7082H35.0001V58.0193H36.3759C36.7276 58.0103 37.0761 58.0891 37.3905 58.2487C37.6679 58.3941 37.8966 58.6193 38.048 58.8958C38.1987 59.1934 38.2773 59.5229 38.2773 59.8573C38.2773 60.1916 38.1994 60.5212 38.0487 60.8187ZM37.1017 60.6331C37.2863 60.4173 37.3879 60.1414 37.3879 59.8559C37.3879 59.5704 37.2863 59.2945 37.1017 59.0787C36.8804 58.8843 36.5925 58.7859 36.3001 58.8048H35.8828V60.9125H36.3001C36.5928 60.9298 36.8804 60.8294 37.1003 60.6331H37.1017Z" fill="black"/>
<path d="M41.4836 60.414H39.4888C39.4823 60.587 39.5414 60.756 39.6538 60.8865C39.7572 60.9835 39.8945 61.035 40.0354 61.0296C40.1514 61.0342 40.2656 60.9995 40.36 60.931C40.444 60.8677 40.5041 60.7774 40.5305 60.6749H41.4633C41.4268 60.8754 41.3417 61.0636 41.2157 61.2227C41.0861 61.3864 40.9201 61.5168 40.7314 61.6035C40.5085 61.7013 40.2671 61.7483 40.0243 61.741C39.7815 61.7338 39.5433 61.6726 39.3265 61.5617C39.1093 61.4429 38.9311 61.2625 38.8137 61.0426C38.6869 60.7994 38.6238 60.5273 38.6304 60.2524C38.6235 59.9757 38.6864 59.7019 38.8131 59.4567C38.9304 59.2373 39.109 59.0577 39.3265 58.9403C39.5602 58.8228 39.8177 58.7617 40.0786 58.7617C40.3396 58.7617 40.5971 58.8228 40.8308 58.9403C41.0425 59.0537 41.2171 59.2269 41.3334 59.4389C41.4552 59.665 41.5166 59.9195 41.5113 60.1771C41.5099 60.2568 41.5006 60.3361 41.4836 60.414ZM40.4689 59.608C40.3621 59.5118 40.2229 59.4606 40.08 59.4649C39.9326 59.4596 39.7888 59.5118 39.6782 59.6107C39.5644 59.7236 39.4995 59.8775 39.4976 60.0387H40.6211C40.6282 59.9598 40.6179 59.8802 40.591 59.8057C40.5641 59.7313 40.5213 59.6637 40.4656 59.608H40.4689Z" fill="black"/>
<path d="M43.7103 61.7082L42.8493 60.4715V61.7082H41.9699V57.8467H42.8493V59.9648L43.7103 58.7959H44.7459L43.5866 60.2517L44.7716 61.7075L43.7103 61.7082Z" fill="black"/>
<path d="M47.7019 59.0992C47.9081 59.3581 48.0118 59.6855 47.9927 60.0175V61.7082H47.1134V60.1223C47.1229 59.9558 47.0684 59.7921 46.9612 59.6655C46.909 59.6104 46.8458 59.5673 46.7758 59.5389C46.7058 59.5106 46.6307 59.4977 46.5553 59.5012C46.4764 59.4973 46.3976 59.5107 46.3242 59.5403C46.2508 59.57 46.1845 59.6152 46.1299 59.6731C46.0175 59.8104 45.9614 59.9861 45.9729 60.164V61.7082H45.0936V57.8467H45.9729V59.3286C46.0529 59.1579 46.181 59.015 46.3409 58.9177C46.5149 58.814 46.714 58.7616 46.9159 58.7664C47.0631 58.7595 47.2099 58.7858 47.3458 58.8433C47.4818 58.9009 47.6034 58.9883 47.7019 59.0992Z" fill="black"/>
<path d="M50.6856 58.9424C50.9084 59.0598 51.0928 59.2401 51.2166 59.4615C51.3436 59.706 51.4101 59.9781 51.4101 60.2544C51.4101 60.5307 51.3436 60.8029 51.2166 61.0474C51.093 61.2689 50.9085 61.4492 50.6856 61.5665C50.4492 61.6896 50.1863 61.7515 49.9205 61.7466C49.6539 61.7513 49.3902 61.6894 49.1528 61.5665C48.9288 61.4497 48.7433 61.2693 48.6191 61.0474C48.492 60.8029 48.4256 60.5307 48.4256 60.2544C48.4256 59.9781 48.492 59.706 48.6191 59.4615C48.7435 59.2397 48.9289 59.0593 49.1528 58.9424C49.3904 58.8198 49.6539 58.758 49.9205 58.7623C50.1863 58.7577 50.4491 58.8196 50.6856 58.9424ZM49.4951 59.7196C49.3715 59.8686 49.3097 60.0603 49.3226 60.2544C49.3089 60.4478 49.3708 60.6389 49.4951 60.7865C49.5493 60.8456 49.6152 60.8924 49.6885 60.9239C49.7618 60.9555 49.8409 60.9709 49.9205 60.9693C49.9998 60.9711 50.0785 60.9556 50.1514 60.9241C50.2243 60.8926 50.2897 60.8457 50.3433 60.7865C50.4657 60.638 50.5266 60.4473 50.5131 60.2544C50.526 60.0608 50.4652 59.8694 50.3433 59.7196C50.29 59.6599 50.2247 59.6126 50.1518 59.5807C50.0788 59.5488 50 59.5331 49.9205 59.5347C49.8409 59.5329 49.7617 59.5483 49.6884 59.5798C49.615 59.6113 49.5491 59.6583 49.4951 59.7176V59.7196Z" fill="black"/>
<path d="M55.7472 58.3117C56.034 58.5235 56.239 58.8298 56.3269 59.178H55.8318C55.7477 58.9575 55.5972 58.7694 55.4016 58.6404C55.1895 58.5008 54.9408 58.4292 54.688 58.435C54.4548 58.4312 54.225 58.4916 54.023 58.6096C53.8254 58.7278 53.6654 58.9008 53.5617 59.1081C53.4504 59.3484 53.3926 59.6106 53.3926 59.8761C53.3926 60.1415 53.4504 60.4037 53.5617 60.6441C53.6682 60.8541 53.8327 61.0283 54.0352 61.1453C54.247 61.2646 54.4863 61.3248 54.7285 61.32C54.9417 61.3223 55.1522 61.2723 55.3421 61.1741C55.5286 61.0758 55.686 60.9291 55.798 60.7488C55.9203 60.5513 55.9936 60.3267 56.0117 60.0942H54.5845V59.7395H56.4108V60.1777C56.3823 60.4597 56.2896 60.7311 56.1402 60.9707C55.9919 61.2073 55.786 61.4014 55.5423 61.5343C55.2789 61.6752 54.9844 61.7459 54.6866 61.7397C54.3619 61.7464 54.0413 61.6646 53.7586 61.5028C53.4923 61.3461 53.2754 61.1163 53.1329 60.8399C52.9851 60.5373 52.9083 60.2044 52.9083 59.8669C52.9083 59.5293 52.9851 59.1964 53.1329 58.8938C53.2759 58.617 53.4926 58.3864 53.7586 58.2282C54.039 58.0653 54.3579 57.9824 54.6812 57.9885C55.0617 57.9766 55.4358 58.09 55.7472 58.3117Z" fill="black"/>
<path d="M58.9711 61.7082L58.0241 60.2058H57.5134V61.7082H57.0446V58.0296H58.2405C58.5764 58.0035 58.9091 58.1111 59.1679 58.3295C59.2716 58.4328 59.3527 58.5571 59.4059 58.6941C59.4592 58.8312 59.4834 58.9781 59.477 59.1252C59.4892 59.3894 59.4009 59.6482 59.2301 59.8484C59.0385 60.0442 58.7849 60.1654 58.5138 60.1908L59.5034 61.7089L58.9711 61.7082ZM57.512 59.8593H58.1979C58.73 59.8593 58.9963 59.6228 58.9968 59.1499C58.9972 58.6769 58.7309 58.4402 58.1979 58.4398H57.512V59.8593Z" fill="black"/>
<path d="M62.6224 58.2227C62.8916 58.3824 63.1119 58.6144 63.2589 58.8931C63.4114 59.1942 63.4909 59.5278 63.4909 59.8662C63.4909 60.2045 63.4114 60.5381 63.2589 60.8392C63.1121 61.1181 62.8918 61.3501 62.6224 61.5096C62.3462 61.6716 62.0317 61.7547 61.7126 61.75C61.392 61.7542 61.0761 61.6712 60.7981 61.5096C60.5264 61.3514 60.304 61.1191 60.1561 60.8392C60.0037 60.5381 59.9241 60.2045 59.9241 59.8662C59.9241 59.5278 60.0037 59.1942 60.1561 58.8931C60.3041 58.6133 60.5265 58.3811 60.7981 58.2227C61.0763 58.0616 61.3921 57.9789 61.7126 57.983C62.0316 57.9784 62.346 58.0612 62.6224 58.2227ZM61.0402 58.6C60.8411 58.7181 60.68 58.8919 60.5762 59.1006C60.4662 59.3396 60.4091 59.6001 60.4091 59.8638C60.4091 60.1274 60.4662 60.3879 60.5762 60.6269C60.6793 60.8368 60.8405 61.0117 61.0402 61.1303C61.2448 61.2486 61.477 61.3089 61.7126 61.3049C61.9469 61.3085 62.1778 61.2472 62.3802 61.1275C62.5793 61.0082 62.7404 60.8335 62.8442 60.6242C62.9543 60.3857 63.0113 60.1256 63.0113 59.8624C63.0113 59.5991 62.9543 59.3391 62.8442 59.1006C62.7404 58.8919 62.5793 58.7181 62.3802 58.6C62.1752 58.485 61.9446 58.4247 61.7102 58.4247C61.4758 58.4247 61.2453 58.485 61.0402 58.6Z" fill="black"/>
<path d="M64.5678 58.0296V60.2366C64.5443 60.5244 64.6291 60.8106 64.8052 61.0378C64.8897 61.1256 64.9919 61.194 65.1047 61.2385C65.2175 61.283 65.3384 61.3026 65.4593 61.296C65.579 61.3027 65.6987 61.2828 65.8101 61.2377C65.9214 61.1926 66.0217 61.1235 66.1039 61.0351C66.2758 60.807 66.3584 60.5226 66.3359 60.2366V58.0296H66.8047V60.2366C66.82 60.4403 66.7952 60.645 66.732 60.8389C66.6687 61.0328 66.5681 61.2121 66.436 61.3665C66.1646 61.61 65.8145 61.7444 65.4518 61.7444C65.0892 61.7444 64.7391 61.61 64.4677 61.3665C64.3354 61.2122 64.2348 61.0329 64.1715 60.839C64.1082 60.645 64.0836 60.4403 64.099 60.2366V58.0296H64.5678Z" fill="black"/>
<path d="M68.0006 60.2264V61.7082H67.5312V58.0296H68.6858C69.0228 58.0035 69.3568 58.1096 69.6186 58.3261C69.7236 58.4306 69.8056 58.5565 69.859 58.6954C69.9124 58.8344 69.936 58.9832 69.9284 59.1321C69.9365 59.2819 69.912 59.4318 69.8567 59.571C69.8014 59.7103 69.7167 59.8355 69.6084 59.9381C69.3472 60.1475 69.0182 60.2508 68.6858 60.2277L68.0006 60.2264ZM69.2608 59.647C69.3257 59.5788 69.3759 59.4977 69.4083 59.4088C69.4406 59.32 69.4544 59.2253 69.4488 59.1307C69.4553 59.0348 69.4419 58.9387 69.4095 58.8483C69.3772 58.758 69.3265 58.6755 69.2608 58.6062C69.0851 58.4697 68.865 58.4054 68.6445 58.4261H68.0006V59.8326H68.6445C68.8658 59.8526 69.0862 59.7862 69.2608 59.647Z" fill="black"/>
</g>
<defs>
<clipPath id="clip0_301_35">
<rect width="67.5" height="31.5" fill="white" transform="translate(12.25 30.25)"/>
</clipPath>
</defs>
</svg>
