<svg width="92" height="92" viewBox="0 0 92 92" fill="none" xmlns="http://www.w3.org/2000/svg">
<rect x="1" y="1" width="90" height="90" rx="4" fill="white"/>
<rect x="1" y="1" width="90" height="90" rx="4" stroke="#E9ECF5"/>
<path d="M31.4646 47.546C32.9915 47.4133 34.6131 47.7937 35.7799 48.8106C37.2359 50.0658 37.8985 52.0391 37.8468 53.9106C37.8889 55.5035 37.4939 57.1557 36.5061 58.4405C35.6274 59.6186 34.2038 60.3356 32.7442 60.4932C31.1201 60.7113 29.3472 60.3356 28.1241 59.2132C26.6945 57.9581 26.0691 56.0096 26.0943 54.1607C26.0571 52.3224 26.6549 50.4012 28.0065 49.0927C28.9223 48.186 30.1791 47.655 31.4646 47.546ZM31.3842 49.837C30.6928 49.9899 30.1166 50.4652 29.7457 51.0495C29.178 51.9348 28.9991 53.0051 28.9727 54.0374C28.9907 55.1017 29.1864 56.2052 29.7938 57.1059C30.2595 57.8004 31.0577 58.3255 31.9244 58.2899C32.8006 58.3468 33.6432 57.8562 34.1114 57.1391C34.882 55.9847 34.996 54.5387 34.882 53.1947C34.7644 52.1588 34.3995 51.0874 33.6 50.3692C33.0095 49.8346 32.1536 49.6746 31.3842 49.837Z" fill="#1467B3"/>
<path d="M53.426 47.546C54.9505 47.4133 56.5697 47.7914 57.7376 48.8035C59.2009 50.0587 59.8659 52.038 59.813 53.9153C59.8551 55.5071 59.4577 57.1593 58.4711 58.4429C57.5924 59.6174 56.1724 60.3345 54.7152 60.4933C53.0899 60.7113 51.3146 60.3368 50.0903 59.2132C48.6607 57.9593 48.0365 56.0108 48.0605 54.1631C48.0221 52.326 48.6199 50.4071 49.9679 49.0963C50.8837 48.1896 52.1393 47.6562 53.426 47.546ZM53.3444 49.8382C52.653 49.9923 52.0781 50.4699 51.7083 51.0554C51.143 51.9396 50.9653 53.0075 50.9389 54.0374C50.9569 55.1006 51.1514 56.2016 51.7576 57.1024C52.2221 57.7969 53.0191 58.3231 53.8846 58.29C54.7944 58.3516 55.6611 57.823 56.1244 57.068C56.8734 55.8864 56.9694 54.4297 56.835 53.0762C56.697 52.0546 56.3152 50.9997 55.5002 50.3147C54.912 49.8193 54.0874 49.6818 53.3444 49.8382Z" fill="#1467B3"/>
<path d="M75.3815 47.6479C76.8687 47.3765 78.4471 47.5329 79.8335 48.141C79.6283 48.9007 79.4014 49.6557 79.2214 50.4213C78.2551 49.978 77.1652 49.7161 76.1005 49.8797C75.5471 49.9662 74.9277 50.336 74.8905 50.9428C74.8209 51.3635 75.0514 51.7689 75.3947 52.0059C76.3658 52.6625 77.5589 52.8889 78.542 53.5266C79.1962 53.939 79.7819 54.5103 80.064 55.2368C80.591 56.5844 80.3185 58.2556 79.2442 59.2713C78.3547 60.1389 77.0764 60.4731 75.8592 60.5418C74.5112 60.5975 73.1308 60.3747 71.9137 59.7833C72.0949 58.9999 72.2846 58.2164 72.4755 57.4342C73.4381 57.9462 74.5268 58.2129 75.6191 58.2342C76.1881 58.1987 76.8327 58.0955 77.2228 57.6392C77.6177 57.1663 77.5985 56.3995 77.14 55.974C76.4114 55.2771 75.3635 55.1254 74.4956 54.6655C73.5005 54.1772 72.5487 53.408 72.2114 52.3248C71.9005 51.2711 72.0685 50.0586 72.7479 49.1745C73.3769 48.346 74.3648 47.8399 75.3815 47.6479Z" fill="#1467B3"/>
<path d="M61.7084 47.9004C63.054 47.6942 64.4163 47.6207 65.7775 47.642C66.9839 47.6799 68.2826 47.815 69.2645 48.576C70.7673 49.6924 70.9186 52.1304 69.621 53.4567C69.2609 53.849 68.8108 54.1547 68.3102 54.3444C68.9716 54.6668 69.4638 55.2617 69.7122 55.9409C70.2332 57.369 70.4096 58.8991 70.9546 60.3202C69.9967 60.2894 69.0388 60.3344 68.0822 60.2953C67.7221 59.2914 67.4796 58.2532 67.2419 57.2173C67.0979 56.6472 66.9275 56.012 66.4257 55.6434C65.8495 55.2428 65.1077 55.3565 64.4451 55.3317C64.4463 56.9921 64.4416 58.6526 64.4488 60.3131C63.5317 60.3084 62.6146 60.3084 61.6976 60.3131C61.7096 56.1755 61.6892 52.038 61.7084 47.9004ZM64.4416 49.8418C64.4596 50.9926 64.4247 52.1434 64.4596 53.2931C65.2902 53.2623 66.1928 53.4009 66.9383 52.9458C67.9645 52.3793 68.0282 50.6987 67.0211 50.0835C66.2457 49.6272 65.295 49.773 64.4416 49.8418Z" fill="#1467B3"/>
<path d="M11.7694 47.7569C13.0082 47.77 14.2469 47.7581 15.4845 47.764C16.2815 50.6441 17.1962 53.4993 17.7219 56.4457C17.8419 56.3094 17.8647 56.1269 17.9032 55.9562C18.5141 53.1781 19.4036 50.4746 20.2486 47.7605C21.4646 47.7652 22.6805 47.7605 23.8964 47.7629C24.0765 51.9466 24.3454 56.1257 24.5278 60.3095C23.63 60.3107 22.7321 60.3095 21.8355 60.3095C21.7658 57.702 21.5918 55.0993 21.5606 52.4907C21.5762 51.7712 21.533 51.0518 21.527 50.3312C20.6531 53.6202 19.604 56.8605 18.6222 60.1199C17.8996 60.1199 17.1769 60.1199 16.4543 60.1199C15.7293 57.3074 14.8795 54.5233 14.3021 51.6752C14.1953 51.2213 14.1557 50.7496 13.996 50.3087C13.9228 53.6451 13.7188 56.9767 13.5735 60.3095C12.7153 60.3107 11.8582 60.3083 11 60.3119C11.2557 56.1257 11.5414 51.9431 11.7694 47.7569Z" fill="#1467B3"/>
<path d="M38.2165 47.7629C41.3434 47.7617 44.4703 47.7629 47.5972 47.7629C47.5948 48.5523 47.5864 49.3416 47.602 50.1322C46.4941 50.1582 45.3874 50.1357 44.2794 50.144C44.2818 53.5337 44.2758 56.9234 44.283 60.3131C43.3576 60.306 42.4321 60.3119 41.5079 60.3096C41.5091 56.921 41.5079 53.5325 41.5079 50.144C40.4131 50.144 39.3172 50.1416 38.2225 50.1452C38.2165 49.3511 38.2249 48.557 38.2165 47.7629Z" fill="#1467B3"/>
<path d="M20.5891 32.0056C24.6132 32.0113 28.6372 32.009 32.6613 32.0067C32.6671 33.2077 32.6532 34.4099 32.6683 35.612C31.5131 35.6109 30.3579 35.6154 29.2027 35.6097C29.1981 38.5109 29.1981 41.4131 29.2027 44.3142C27.5282 44.3142 25.8537 44.3154 24.1804 44.3142C24.2035 42.0786 24.1689 39.8406 24.1954 37.605C24.1308 36.9361 24.2704 36.2627 24.1642 35.5995C22.9721 35.6302 21.7789 35.6029 20.5856 35.6132C20.5937 34.411 20.5879 33.2077 20.5891 32.0056Z" fill="#1467B3"/>
<path d="M36.1303 32.0407C37.8082 31.9644 39.492 32.0282 41.1734 32.0054C41.3188 31.9872 41.4146 32.0464 41.4607 32.1832C43.0637 36.2283 44.6412 40.2849 46.2603 44.3243C44.6332 44.3072 43.0048 44.3118 41.3765 44.322C40.4948 41.8927 39.6743 39.4428 38.7915 37.0134C37.9075 39.4303 37.0939 41.8733 36.2492 44.305C34.6358 44.3277 33.0225 44.3072 31.408 44.3152C32.9937 40.229 34.5804 36.1406 36.1303 32.0407Z" fill="#1467B3"/>
<path d="M45.1052 32.0054C48.5223 32.0054 51.9393 32.01 55.3552 32.01C55.9553 32.01 56.5577 31.9837 57.1567 32.0305C57.1451 33.2258 57.1474 34.4211 57.1544 35.6164C55.9992 35.6062 54.8429 35.6164 53.6865 35.6107C53.6923 38.513 53.6819 41.4152 53.6923 44.3163C52.0201 44.3152 50.3479 44.3095 48.6769 44.3198C48.6907 41.4175 48.6746 38.5152 48.685 35.6119C47.4906 35.6141 46.2973 35.6073 45.1029 35.6164C45.1075 34.4131 45.1029 33.2087 45.1052 32.0054Z" fill="#1467B3"/>
<path d="M60.6372 32.0475C61.4497 31.9472 62.2725 32.0441 63.0907 32.0065C64.0347 32.0293 64.9833 31.9564 65.925 32.0464C67.5187 36.1428 69.1343 40.2313 70.7627 44.314C69.1286 44.314 67.4956 44.3163 65.8627 44.3129C65.0768 42.0248 64.2597 39.7459 63.4669 37.4601C63.415 37.329 63.385 37.1626 63.2234 37.1262C62.4294 39.5294 61.5582 41.9074 60.7584 44.3083C59.1428 44.3266 57.5283 44.3038 55.9138 44.3197C57.4971 40.2324 59.0816 36.1451 60.6372 32.0475Z" fill="#1467B3"/>
</svg>
